<?xml version="1.0" encoding="UTF-8" standalone="no"?>
<!-- Created with Inkscape (http://www.inkscape.org/) -->

<svg
   width="14.671632mm"
   height="15.252429mm"
   viewBox="0 0 14.671632 15.252429"
   version="1.1"
   id="svg1"
   xml:space="preserve"
   sodipodi:docname="g64.svg"
   inkscape:version="1.4 (e7c3feb100, 2024-10-09)"
   xmlns:inkscape="http://www.inkscape.org/namespaces/inkscape"
   xmlns:sodipodi="http://sodipodi.sourceforge.net/DTD/sodipodi-0.dtd"
   xmlns="http://www.w3.org/2000/svg"
   xmlns:svg="http://www.w3.org/2000/svg"><sodipodi:namedview
     id="namedview1"
     pagecolor="#505050"
     bordercolor="#eeeeee"
     borderopacity="1"
     inkscape:showpageshadow="0"
     inkscape:pageopacity="0"
     inkscape:pagecheckerboard="0"
     inkscape:deskcolor="#505050"
     inkscape:document-units="mm"
     inkscape:zoom="14.311245"
     inkscape:cx="27.740423"
     inkscape:cy="28.823488"
     inkscape:window-width="1920"
     inkscape:window-height="1012"
     inkscape:window-x="0"
     inkscape:window-y="0"
     inkscape:window-maximized="1"
     inkscape:current-layer="svg1" /><defs
     id="defs1"><clipPath
       id="clipPath70"
       clipPathUnits="userSpaceOnUse"><path
         id="path68"
         d="m 34955.4,4208.4 c -1.6,-0.1 -3.2,-0.1 -4.9,-0.1 1.5,0 3.5,0 5,0 0,0 0,0 -0.1,0 z m -806.5,403.9 c -9.6,5.6 -14.4,4.7 -16.1,4.1 -9.2,-3.8 2.7,-23.5 21.8,-31 11.5,-4.6 15.3,1.2 11.6,9.4 -1.9,4.3 -6.5,10.8 -17.3,17.5 z m 431.3,-217.8 c -6.1,2.6 -12.8,3.3 -17.2,2 -10.3,-3.1 -3.2,-14.9 9.5,-20.9 12.6,-5.8 26.6,-3.9 22.9,5.7 -0.9,2.4 -4.1,8.3 -15.2,13.2 z m -211.3,99 c -12,5.5 -17.6,3.4 -19.5,2.3 -8.4,-5.3 5.6,-22.7 22.5,-27.8 10.8,-3.3 19.3,0 14.3,9.8 -2.2,4.4 -8.1,11.1 -17.3,15.7 z m -814.7,823.7 c -1.9,2.2 -7.5,8.9 -13,7.9 -12,-2.2 -3.7,-39 11.4,-51.2 8.2,-6.6 15.9,-2.7 13.9,13.2 -0.6,4.8 -3,17.5 -12.3,30.1 z m 612.9,1872.8 c 5.7,3.2 16.4,9.7 23.1,16.3 1,1.1 2.7,3 2.3,3.9 -2.3,5.5 -48.7,-20.7 -51.1,-28.9 -1.4,-4.5 12.3,1 25.7,8.7 z m -430.2,-2070.1 c -2.8,2.5 -11.3,10 -19.4,8.6 -17.5,-3 -6.3,-43.1 16.3,-58.8 13.5,-9.3 25.8,-4.7 22.2,15.5 -1.7,9.1 -7.7,23.7 -19.1,34.7 z m -269.1,656.7 c -16.6,3.2 -24.2,-47 -5.8,-71.1 11.2,-14.7 21.7,-2 24.2,18.4 1.2,9.9 1,25.1 -6.8,41.3 -1.9,3.4 -5.9,10.3 -11.6,11.4 z m 392.4,1140.8 c 6.1,5.7 17.1,17.1 22.2,29 1.5,3.9 1.5,6.4 -0.1,7.4 -9.8,6.6 -53,-34.9 -52,-49.8 0.5,-7.6 13.9,-1.5 29.9,13.4 z m -355.3,-701.3 c -17.5,5.1 -36.3,-48.7 -25.1,-72 7.1,-14.7 22.3,-4.9 30.7,19.8 4.8,14 5.9,29.5 3,40.5 -1.1,3.3 -3.3,10.2 -8.6,11.7 z m 133.7,351.7 c 5.1,7.7 13.6,23 14.5,38.8 0,5.1 -1.3,8.6 -3.9,10 -14.8,8.1 -49.3,-44.5 -43.5,-66.1 3.4,-12.4 19.1,-4.2 32.9,17.3 z m 1392.1,-2207 c -22.3,7.1 -49,-6.3 -42,-21 7.4,-15.8 45.5,-12.8 52.3,4.2 2.7,6.8 -1.4,13.6 -10.3,16.8 z m -1078.8,581.7 c -9.3,6.9 -19.1,10.1 -26.4,8.7 -22.1,-4.5 -10.2,-44.7 18.6,-63.3 21.2,-13.7 38.1,-5.3 33.4,16.7 -1.3,6.3 -6.5,22.6 -25.6,37.9 z m 904.3,-508.3 c -2.6,0.9 -5.7,2 -9.8,2.8 -26.3,4.7 -46.3,-12 -34.5,-28.9 14.9,-21.5 59.3,-19.4 62.4,3 1.3,9 -5.8,18 -18.1,23.1 z m -672.7,347.7 c -4.4,2.5 -17.9,10.4 -30.5,7.9 -23.1,-4.6 -16,-38.2 12.4,-58.1 26.5,-18.6 51.4,-11.6 46.5,13.2 -2.6,13.4 -13.5,27.5 -28.4,37 z m 1265.8,-405.6 c -17.9,5.8 -59.3,-17.8 -60.2,-30.8 -0.8,-12.3 34.6,-3.1 54.9,14.3 5.2,4.4 12.7,12.4 5.3,16.5 z m -1846.9,1185.8 c -25.9,-1.1 -26.4,-59.6 -0.8,-86.9 18,-19.2 36.9,-8.4 38.2,21.8 0.4,10.5 -1.1,31.2 -15.8,51.9 -3.4,4.1 -11.3,13.7 -21.6,13.2 z m 481.7,1497.3 c 11.7,8.9 26.1,22.1 31.3,32.5 0.8,2 2.3,5.4 0.6,7.2 -9.4,10.2 -72.4,-35.3 -74.8,-54.1 -1.4,-10.8 18.7,-4 42.9,14.4 z m 336,-2414.1 c -4.5,2.3 -18.4,9 -32.6,6.1 -25.9,-5.3 -18.9,-34.1 5.1,-51.7 27.1,-19.8 60,-13.1 56,11.2 -2.1,12.6 -13.6,26.4 -28.5,34.4 z m 227.4,-117 c -4.1,1.7 -13.6,5.6 -25.5,4.9 -26.7,-1.7 -32.5,-24.4 -11,-42.5 24.3,-20.4 62.9,-15.6 61.6,7.8 -0.6,11.1 -10.7,23.1 -25.1,29.8 z M 35649,4425.5 c -0.1,-9.6 34,5.6 58.9,26.3 7.5,6.2 19.5,17.5 15.6,22.7 -14.4,8.1 -74.4,-36.4 -74.5,-49 z m -2038.2,1513.1 c 3.2,11.9 6.9,35.6 -4.8,59.7 -2.8,4.8 -7.2,12.1 -15.3,14.8 -29.7,9.7 -52,-56.6 -31.8,-94.6 15,-28.1 41.6,-17.8 51.9,20.1 z m 223.7,804.1 c 7.7,9.4 20.9,28 22.4,47 0.1,3.1 -0.3,8.5 -3.9,11.1 -16.3,12 -73.8,-43.4 -69.9,-76.9 2.3,-19.2 27.7,-9.8 51.4,18.8 z m 1504.3,-2312.1 c -26.8,10.2 -75.6,-16.7 -70.6,-39 4.9,-22 57.7,-8.5 74.6,14.2 3.9,5.1 11.1,17.8 -4,24.8 z m -1653.8,1990 c -1.2,3.6 -3.2,9.5 -8.7,12.7 -25.5,14.9 -67.1,-51 -56.3,-89.2 7.6,-26.9 36.9,-17.3 54.9,18.2 4.8,9.4 15.5,34.1 10.1,58.3 z m 95.1,-1063.6 c -33.7,-2.5 -33.2,-63.9 0.9,-96.7 26.6,-25.6 56.5,-13.5 56.1,22.7 -0.2,9.9 -2.9,35.7 -25.4,59.9 -5.1,4.6 -16.8,15.2 -31.6,14.1 z m 542.6,1829.7 c 8.8,5.5 30.5,19.7 40.8,32.7 1.4,2.2 2.7,4.3 1.9,5.9 -6.1,12.9 -91.7,-35.9 -95.4,-54.4 -2.1,-10.5 22,-3.2 52.7,15.8 z M 35179,4501 c -40.9,14.2 -86.6,-17.1 -77.7,-44 10.4,-31.5 78.1,-23.7 92.9,10.6 2.9,6.6 7,23 -15.2,33.4 z m -1147.3,654.6 c -6.4,4.7 -21.6,15.6 -39.9,13.6 -39.2,-4.1 -39.7,-63 -0.8,-98.3 35,-31.9 76.1,-19.6 74.4,22.2 -0.9,22.6 -14.1,47.1 -33.7,62.5 z m 526.7,2138.6 c 7.7,3.8 33.9,17.3 47.9,28.1 1.9,1.8 4.6,4.1 3.4,5.2 -8.8,7.9 -107.1,-38.6 -108.4,-51.2 -0.7,-5.7 18.8,-1.4 57.1,17.9 z M 35656.1,4530 c -23.5,11.8 -91.3,-32.8 -90.7,-59.6 0.6,-23.7 55.3,-5.6 84.9,28.1 7.4,8.4 18,23.7 5.8,31.5 z M 33764,5716.1 c 2.2,12.6 5,45.1 -16.1,75.1 -4.5,5.3 -12.1,14.1 -24.7,16.6 -44.3,8.9 -65.6,-71.3 -31.6,-119.2 22.4,-31.6 63.6,-22.7 72.4,27.5 z m 289.7,1192.3 c 8.5,8.8 28.9,31.6 32.5,52.6 0.1,3.5 0.2,6.8 -2.6,9.5 -19.7,19.3 -99.9,-50.8 -96.5,-84.3 2,-18.7 33.1,-12.1 66.6,22.2 z m 955.8,-2357.3 c 2.1,9.6 1.5,27.9 -26.6,41.7 -3.8,1.7 -10.5,3.9 -16.6,4.9 -46.2,7.8 -84.2,-28.7 -62.5,-60.2 24.8,-36 96.9,-26.8 105.7,13.6 z m -738.8,432.4 c -18.1,11.7 -33.3,13.1 -40.8,12.9 -43.7,-1.4 -52.3,-54.2 -14.9,-91.2 40.7,-40.1 96.2,-29.7 94.3,17.7 -0.5,12.8 -6.2,37.8 -38.6,60.6 z m 1571.1,-411.1 c 2.3,-16.3 47.3,8.9 78.9,44.2 9.7,10.8 24.9,30.3 18.1,39.5 -22.1,13.9 -100,-62.8 -97,-83.7 z m -1084.6,130.2 c -6,2.7 -16.1,7.1 -29.9,8.1 -48.5,3.5 -74.6,-37.5 -45.6,-71.9 34,-40.6 106,-31.9 110,13.3 1.4,15.4 -7,36.7 -34.5,50.5 z m -241.1,132.3 c -7.4,3.8 -19.7,10.1 -36.5,10.8 -49.4,2.2 -67.1,-45 -31.2,-82.7 39.6,-41.6 104.9,-32.8 105.9,14.2 0.5,21.6 -14.5,44.2 -38.2,57.7 z M 33774.6,6155 c 5.9,15.4 13.5,45.5 -0.7,75.2 -4.6,8.2 -10.3,13.8 -17,16.5 -40.6,16.7 -85.7,-64.2 -64.3,-115.4 17.5,-41.9 62,-29 82,23.7 z m 102.8,484.2 c -31.1,15.4 -97.2,-58.3 -83.4,-107.7 8.9,-32.1 49.3,-19.1 77.2,24.9 8.7,13.8 22.6,41.1 17.1,67.9 -1.4,4.2 -3.8,11.4 -10.9,14.9 z M 35531.6,4601 c -41.6,17.1 -117,-32.4 -107.6,-70.6 8.8,-36.1 87.5,-17 115.4,28 6.9,11 14.9,31.2 -7.8,42.6 z m -1570.2,912.3 c 1.2,23.3 -5.9,56.6 -29.4,80.3 -6.3,5.7 -19.5,17.6 -38.6,18.1 -55.7,1.5 -71.2,-89.1 -24,-140.4 33.5,-36.4 88.7,-20.2 92,42 z m 319.4,1547.3 c 10.2,9 34.5,32.1 41.3,52.6 0.5,3.5 1,6.5 -1.6,8.9 -19.9,18.1 -117.6,-55.3 -116.2,-87.2 0.8,-18.2 36.3,-9.9 76.5,25.7 z m 1583.9,-2332 c -40.6,17.5 -121.8,-60.5 -115.4,-98.2 6.4,-38.3 82.4,1.4 112.8,50.2 10.9,17.5 17.4,39.3 2.6,48 z m -512,-42.7 c -63.9,23.2 -134.7,-37.2 -115.3,-80.9 20.2,-45.7 115,-27.3 137,26.6 4.4,10.8 11.2,37.9 -21.7,54.3 z m -1469,1368.7 c -58.8,16.7 -105,-82 -66.7,-142.8 30.5,-48.4 90.7,-29.6 107.4,33.5 4.1,15.5 11,55.5 -14.1,90.8 -4.2,5.3 -13.2,14.7 -26.6,18.5 z m 307.1,-746.7 c 2.1,33.1 -13.4,68.2 -39.5,89.6 -8.1,6 -21.7,16 -41.9,17.6 -64.8,5.3 -88.1,-81.8 -37.2,-139 45.7,-51.5 114.5,-33.1 118.6,31.8 z m 311.7,1890.4 c 8.5,6.4 37.2,29 48.1,47.1 1.3,3 2.4,5.6 0.6,7.5 -11,11.7 -122,-48.9 -125.9,-81.1 -2,-16 32,-7.8 77.2,26.5 z m -420.6,-453.7 c 9,12.5 29.6,44.6 25.2,73.4 -1.3,6 -4.1,10.4 -8.4,13.1 -33.7,21.8 -117.1,-62 -111.6,-112 4.5,-39.9 57.6,-25.6 94.8,25.5 z m 2055,-1863.5 c -26.7,13.1 -114.5,-89.6 -105.6,-123.6 6.2,-23.5 57.7,13.4 91.9,65.9 10.1,15.4 25.5,43.2 16,56.1 -0.7,0.5 -1.6,1.2 -2.3,1.6 z m -2279.1,1453.1 c 18.3,-46.5 79.4,-28.9 107.2,30.8 14.7,31.7 16.7,66.2 5.1,87.8 -3.6,5.8 -7.1,11.2 -15.1,15.4 -49.4,25.9 -121.1,-73.1 -97.2,-134 z m 583.5,-1203.7 c 2.4,32.8 -15.6,67.2 -45.8,87.6 -10.2,6.3 -25.6,15.8 -48,16.9 -67.5,3.1 -94.9,-77.9 -45.1,-133.4 52,-57.9 133.8,-40.9 138.9,28.9 z m 733.3,-407.6 c 4,15.3 5,44 -34,64.6 -4.4,1.8 -10.3,4.1 -14.9,5.3 -66.5,17 -132.4,-42.3 -103.7,-93.4 31.6,-56.1 135.7,-40.1 152.6,23.5 z M 34706.7,7314 c 1.5,0.9 35.8,22.9 52.7,37.7 3.3,3.3 3.7,3.9 3.9,5.4 -4.1,4.3 -51.7,-16.6 -74.4,-29.1 -47.3,-26.2 -51.7,-38.7 -52.1,-40.9 -1.4,-8.3 19.3,-5.4 69.9,26.9 z m 239.2,-2475.5 c 2.4,17.2 0,49.7 -43.3,74.5 -10.5,5.3 -21.8,8.8 -33.8,10.2 -73.6,8.6 -120.8,-56.8 -80.1,-111.1 43.5,-58.1 147.9,-40.6 157.2,26.4 z m -249.5,133.7 c 1.3,14.9 -0.8,52.8 -47.3,82.7 -6,3.5 -22.1,11.8 -42.3,13.5 -72.7,6.2 -110.1,-67.8 -62.5,-123.8 49.8,-58.5 146.4,-40.9 152.1,27.6 z m 239.5,2456 c -105.2,-35.4 -107.2,-47.1 -107.3,-47.6 5,-0.9 21.9,7.4 55.4,24 23,11.4 36.5,17.5 51.9,23.6 z m 793.3,-2618.1 c -65,24.4 -153,-61.6 -133.9,-111.3 18.1,-47.2 113.5,-16.2 145.7,47.3 14.5,28.6 9.9,53.7 -11.8,64 z M 34120.9,5743 c 4.3,22.3 6.3,65.4 -29.1,103.8 -6.7,5.9 -18,15.7 -35.5,19.5 -72.8,15.5 -119.8,-88.6 -71.8,-159.2 41.4,-60.9 121.7,-39.8 136.4,35.9 z m 174.1,1177.2 c 18.1,22.1 35.1,53.4 32.5,73.5 -1.1,4.5 -2.1,8.9 -7.3,12 -31.1,19 -134.7,-65.3 -126.9,-119.2 4.6,-31.9 58,-19.9 101.7,33.7 z M 36305.2,5141 c -32.7,17.8 -117.5,-116.7 -103.1,-163.5 9.7,-31.6 62.6,16.5 94.3,85.7 9.5,20.8 23.7,58.3 11.5,75.8 -0.8,0.6 -1.8,1.5 -2.7,2 z m -248.6,-175.7 c -52.2,25.1 -142.6,-88.3 -128,-138.8 13,-45.3 91.6,-3 127.5,68.5 9.5,19 22.2,53.3 0.5,70.3 z m -1894.7,1710.8 c -47.6,34.3 -140.8,-66.9 -124.6,-135.3 13.6,-57.7 87.3,-40.2 125.2,29.8 10.5,19.5 26,57.5 10.6,92.3 -2.5,4.2 -5.7,9.3 -11.2,13.2 z m -191.4,-540.2 c 31.2,-63.7 111.2,-43.1 138.1,35.5 7.4,21.7 15.7,63.8 -11.8,102.3 -6.8,8.4 -14.8,14.4 -23.8,18 -66.5,26.5 -138.4,-82.7 -102.5,-155.8 z m 1464.3,1248.7 c 0.2,0.4 0.5,0.8 0.7,1.1 -6,5.4 -44.9,17.4 -91.1,26.2 -15.3,2.9 -54.5,9.7 -90,11 -6.8,0 -8.2,0 -10.5,-0.6 0.1,-0.3 0.3,-0.6 0.4,-0.9 8.3,-3.5 177.2,-38.1 190.5,-36.8 z m 135.9,-2551.5 c 5.3,15.4 13.1,53.6 -29.7,75.7 -0.3,0.1 -0.6,0.3 -0.9,0.4 -75.5,30 -176.3,-51.4 -147.7,-119.2 27.7,-65.7 151,-35.9 178.3,43.1 z m -1221.4,714.8 c 3.3,24.3 2.1,70.8 -42.5,110.3 -10.8,8.7 -28.8,19.3 -52.3,20.4 -83.7,3.9 -121.8,-105.2 -61.8,-176.9 54.6,-65.1 145.3,-38.3 156.6,46.2 z m 148.5,1535.5 c 8.3,9.3 35.6,41.5 37.9,67.3 -0.3,4.2 -0.6,7.9 -4.7,10.5 -24.9,16 -137.1,-68.6 -132.3,-113.7 3.1,-28.5 52.6,-16 99.1,35.9 z m 857.5,-2149.3 c 5.3,21.3 6.8,60.9 -43,88.1 -7.4,3.1 -16.5,6.9 -28.7,8.8 -86.9,13.5 -163,-76.7 -119.8,-142 45.3,-68.2 170.6,-38.7 191.5,45.1 z m -754,430.6 c 3.5,25.3 1.3,73.8 -51.1,114.2 -9.7,6.1 -25.9,16.2 -48.6,19 -90.5,11.2 -140.9,-100.8 -79.4,-176.2 59.8,-73.2 167,-47.5 179.1,43 z m 75.4,1858.6 c 17.7,18.1 37.9,43.9 42.2,58.4 0.7,3.3 1.3,6.2 -1,8 -16.3,12.4 -126.6,-64.9 -127.2,-101 -0.4,-23.7 41.2,-11.2 86,34.6 z m 438.8,-2165.6 c 4.1,23.5 2.7,67.7 -51.8,100.4 -7.8,3.7 -17.6,8.3 -30.4,10.9 -94.3,19.3 -168.2,-74.9 -118,-150.5 51.7,-77.7 184.5,-51.8 200.2,39.2 z m -257.6,142.6 c 3.3,24.8 0.5,72 -54.6,109.2 -11.6,6.3 -22.5,12.2 -41.1,15.2 -96.4,15.8 -157.8,-88 -98,-165.8 58.6,-76.2 181.7,-49.9 193.7,41.4 z m 1075.5,-226.6 c 8.4,22.3 17.2,62.9 -18.2,84.9 -77.5,32 -174.3,-84.7 -148.5,-151.4 24.7,-64 133.8,-20.5 166.7,66.5 z m 494,454.9 c -38.9,9.1 -104.6,-161.9 -78.9,-205.7 16.4,-27.9 62.6,33.1 83.7,110.8 6.8,25.1 16.1,70.3 1.5,91.1 -1.7,1.4 -4.1,3.3 -6.3,3.8 z M 34296.1,5983 c 6.3,25.1 11.1,73.4 -28.3,115.6 -8.5,7.3 -16.6,14.3 -31.5,19 -81.2,25.9 -153.7,-87.7 -109.2,-171.1 41.5,-77.7 145.8,-55.2 169,36.5 z m 1014.8,1413.7 c 0,0.3 0.1,0.8 0.2,1.2 -8.3,5.2 -47.7,14.5 -99.2,20.9 -25.2,3.1 -64.8,7 -110.7,7.8 -11.7,0.1 -11.7,0.1 -15,-0.8 1.5,-0.4 211.3,-31.4 224.7,-29.1 z m -482.4,-53.2 c 11.9,11 33.9,32.9 42.9,42.7 3.6,4.1 3.6,4.2 3.5,5.8 -13.6,1.2 -114.3,-62.1 -112.1,-84.3 0.8,-7.2 18.3,-8.2 65.7,35.8 z M 34232,6726.2 c 17,-50.3 89.6,-27.2 129.4,41.1 11.7,20 29.2,58.5 15.9,92.6 -3.4,5.8 -6.6,11.3 -14.8,15.1 -52.2,24.4 -151,-88.3 -130.5,-148.8 z m 668.3,676.3 c 3.3,-0.2 10.7,5.7 35.3,25.4 0.1,0.1 0.2,0.2 0.3,0.3 -28,-15.5 -36.2,-24.1 -35.6,-25.7 z m 1319.5,-2168.1 c -1.5,1 -3.6,2.1 -5.2,2.7 -57.8,22.6 -148.8,-122.2 -117.3,-186.6 23.4,-48 101.1,8.4 129.9,94.2 6.6,19.6 19,67.6 -7.4,89.7 z m -1954.6,1287.9 c -71.4,25.9 -157.3,-92.6 -122.5,-169 30.2,-66.7 122.8,-41.8 154.6,41.5 7.3,19.2 21.3,68.2 -7.9,109.9 -6.2,6.8 -12.1,13.2 -24.2,17.6 z m 1429.4,756.7 c -1,7.6 -48.4,33 -97.5,52.4 -13.5,5.3 -60.6,23.3 -97.5,29.6 -8.7,1.3 -9.3,0.6 -10.6,-0.8 1.2,-1.5 194.8,-89.5 205.6,-81.2 z M 34475.2,5920.9 c -9.4,6.7 -25.3,17.9 -48.6,21.2 -92.4,13 -155.7,-109 -99.4,-191.9 56.6,-83.6 173.6,-55.1 192.6,46.9 5,27.4 6,79.9 -44.6,123.8 z m 2020.6,-184.5 c -40.7,-2.5 -73.4,-202.3 -39.3,-240.1 21,-23.2 53.1,45.7 61.4,131.7 2.7,28.4 4.8,79.7 -12.2,103.6 -2.5,2.3 -5.6,5.1 -9.9,4.8 z M 35761,5070.5 c 6.6,24.9 10.4,70.6 -38.8,97.5 -2.8,1.1 -6.5,2.7 -9.4,3.7 -93,30.4 -202.6,-88.5 -156.3,-169.7 43.8,-76.8 177.6,-32 204.5,68.5 z m -1208.8,1983.2 c -41.5,18.3 -148.1,-84.9 -130.6,-144.5 12.7,-43.6 81.7,-26.8 124.3,45.6 9,15.1 28.6,53.8 18.5,85.6 -2.6,5.3 -5.1,10.2 -12.2,13.3 z m 607.8,356.9 c -6.9,3.5 -47.9,10.4 -106.7,14.2 -47.6,3.1 -93,3.3 -117.4,3.4 58.5,-1.8 108.7,-7 163.5,-13.1 52.3,-5.8 58.6,-6 60.6,-4.5 z m 942.9,-2178.5 c 5.5,22.3 13.6,77.2 -28.4,104.9 -2.3,1 -5.2,2.6 -7.6,3.4 -78.8,28.4 -179,-122.4 -134,-201.6 38.4,-67.8 144.9,-9.4 170,93.3 z m 254.6,188.2 c 5.1,28.6 9.3,80.5 -19.9,106.2 -3.2,1.9 -7.7,4.3 -11.3,5 -63.2,12.9 -131.6,-168.1 -87.1,-230.4 33.3,-46.9 100.8,21.1 118.3,119.2 z m -816.7,-243.4 c 4.3,22.1 7.7,77.2 -53.5,111.6 -10.6,5.2 -19.3,7.4 -22.2,8.1 -104.8,25.9 -203.4,-95.4 -148.6,-182.8 54.3,-86.8 203.2,-44.9 224.3,63.1 z m 1006.3,756.7 c -1.8,23.7 -8.3,81.5 -27.5,105.5 -2.9,3.1 -6.7,4.8 -9.5,4.2 -34.8,-6.3 -28,-229.5 7.7,-254 20.9,-14.4 35.9,59.8 29.3,144.3 z M 34770.4,5624 c 3,23.5 3.3,83.1 -56.6,127.7 -9.7,6.5 -30,17.7 -56.5,19.7 -106.1,7.9 -165.6,-120 -96.5,-207.3 67,-84.6 196.3,-47.6 209.6,59.9 z m -475.6,538.9 c 48,-73.3 156.3,-40.6 181.2,54.5 5.7,21.9 14.3,77.7 -28.5,122.8 -7.8,6.6 -20.9,17.5 -42,20.8 -90.1,13.9 -163.5,-117.6 -110.7,-198.1 z m 2068.7,475.3 c 4.7,8.4 -29.8,69.9 -63.8,119.8 -12.4,18.1 -43.4,62.2 -64.7,80 -3.5,2.3 -4.2,2.6 -6.1,2.4 -8.2,-12.7 118.8,-203.6 134.6,-202.2 z m -526.9,531.1 c 73.8,-45.6 87.2,-48 90.7,-45 0.4,10.5 -44.1,47.4 -95.3,79.1 -13.9,8.6 -62.1,37.4 -98.6,48.4 -8.4,2.3 -9.9,1.5 -11.3,0.6 -0.1,-0.3 -0.3,-0.8 -0.3,-1.2 0.9,-11.1 95.8,-70.2 114.8,-81.9 z m -502,214.3 c -0.1,-0.5 -0.4,-1 -0.5,-1.5 1.7,-1.5 228.2,-86 237.5,-75 -2,9 -49.1,31.1 -103,48.3 -19.5,6.2 -70,21.3 -119,27.7 -9.3,1 -11.2,1.1 -15,0.5 z M 34321.1,6565 c 27,-62.7 123.7,-45.2 159.7,48.2 7.6,19.5 22.1,69.2 -5.6,109.5 -6,6.6 -11.6,12.8 -23.5,16.7 -71.7,23.9 -163.2,-98.4 -130.6,-174.4 z m 396.8,642.3 c -33.2,15.2 -135.2,-84.3 -119.1,-136 9.4,-30.2 65.8,-18 104.6,47.1 17.4,29.1 26.6,61.4 22.4,78.5 -1.6,4.4 -2.9,8.1 -7.9,10.4 z m 283.8,215.8 c -4,0.8 -23.1,3.2 -63.7,5 -0.6,0 -1.5,0.1 -2.1,0.1 65.4,-5.2 65.4,-5.2 65.8,-5.1 z m 29.2,-1966 c 3.8,29.7 0.8,85.9 -62.5,128.2 -13.4,7.1 -26,13.8 -47.3,16.9 -109.1,15.8 -182.3,-111.4 -116.8,-203.1 67.5,-94.7 211.6,-57.8 226.6,58 z m 262.5,-147.7 c 4.1,29.2 1.5,83.9 -61.9,122.7 -13.5,6.4 -26.2,12.5 -47.8,14.6 -109.8,10.4 -184.2,-119.7 -117.1,-204.6 69,-87.4 211,-45.2 226.8,67.3 z m 1176.3,1060.7 c 13.9,-3.4 -4.5,65 -36.5,135.5 -11.7,25.6 -34.2,71.6 -54.1,91.1 -2.9,2.5 -5.8,3.8 -7.4,3.2 -19.2,-6.8 73.3,-223.8 98,-229.8 z m 50.3,-285.2 c 19.7,-13.4 18.7,59 -2,140.7 -7.2,28.5 -22.3,79.5 -42.4,102.2 -2.5,2 -5.6,4.4 -8.4,3.9 -29.4,-5.8 17,-222.6 52.8,-246.8 z m -1672.3,1249.2 c -17,10.4 -107.8,-78.8 -97.8,-114.5 6.7,-23.7 46.9,-11.1 77.9,43.9 12.2,21.5 22,49.2 22.5,63.1 -0.2,3.2 -0.3,6.1 -2.6,7.5 z m 87.2,93 c -11.6,-11.5 -24.2,-22.1 -35.6,-33.8 -10.2,-10.3 -16.2,-18.2 -19,-22 -10.3,-13.6 -15.8,-27.4 -13.2,-33.5 3.2,-7.8 21.7,-3.6 42.9,40 7.1,14.8 12.6,30.3 21.4,44.3 1.1,1.7 2.3,3.3 3.5,5 z m 1471.3,-1591.4 c -4.5,2.6 -10.1,5.7 -17.4,5.5 -65.9,-2.3 -96.5,-204.1 -40,-263.3 39,-40.8 91.1,38.1 92.9,140.8 0.6,31.9 -3.2,89.6 -35.5,117 z m -545.5,-372.5 c -105.9,22.4 -202.5,-133.8 -137.8,-222.8 57.3,-78.8 189.2,-18.2 207.6,95.5 4.1,24.9 7.3,86.4 -49.2,120 -6.5,3.3 -13.4,5.7 -20.6,7.3 z M 34694,6046.4 c 4.2,24.1 8,85.3 -47.7,132.7 -11.3,7.6 -22,14.9 -40.9,18.9 -105.3,22.6 -185.2,-114.1 -122.3,-209 59.4,-89.4 191.4,-53.5 210.9,57.4 z m 1430.4,879.1 c 12.6,3.7 -22,53.1 -80.4,105.2 -17,15.2 -60.5,52.3 -96.1,67.4 -8.5,3.3 -11.7,2.5 -12.9,1.3 -15.2,-15.3 165.5,-181.1 189.4,-173.9 z m -697.8,410 c -5,9.2 -52.2,27.6 -107.4,42 -20.2,5.2 -73.5,18 -133.6,24.8 -17.2,1.7 -17.8,1.3 -19.6,0.2 1.9,-1.2 248.6,-78.1 260.6,-67 z m -930.7,-569.8 c 24.9,-60.4 118.3,-39.5 151.8,52.6 6.8,18.7 19.9,66.2 -5.1,104 -3.9,5.2 -10,10.2 -15.3,12.8 -63.6,31.1 -161.8,-95.6 -131.4,-169.4 z m 1737,-1248.8 c 6.3,56.2 -10.5,104.7 -42.7,123.5 -4.7,2.3 -11.2,5.1 -16.3,6.2 -88.6,18.3 -161.3,-161.5 -99.7,-246.5 50.7,-70.1 145.7,-0.2 158.7,116.8 z m -1587.2,935 c 5.5,22.4 13.7,79.2 -29.2,123.9 -8.8,7.3 -17.2,14.1 -32.8,18 -91.4,22.7 -177.8,-120.2 -123.2,-203.9 44.5,-68.4 159,-43.8 185.2,62 z m 926.1,838.5 c -1.7,-17.2 206.9,-131.4 232.5,-127.3 18,2.9 -24.7,41.6 -94.6,78.9 -15.7,8.3 -70.6,36.4 -119.8,48.2 -14.5,3.1 -16.8,1.2 -18.1,0.2 z m 138.6,-1837.1 c 3.5,32.5 -0.5,92.5 -67.2,128.9 -10.7,5.1 -25.9,9.5 -37.7,11 -118.4,14.4 -206.2,-141 -132.4,-234.2 72.8,-92.1 223.7,-32.1 237.3,94.3 z m 701.7,416.5 c 41,-27.8 70.8,53.1 56,151.8 -4.7,31.6 -17.8,88.6 -51.8,114.7 -3.3,2 -12,7.5 -22.4,4.2 -56.1,-17.5 -41.7,-230 18.2,-270.7 z m -1475.1,10.5 c 3.9,31.5 0.8,91.2 -63,137 -10.5,6.7 -32.1,18.2 -59.4,19.8 -110.6,6.7 -177.5,-137.8 -105.3,-227.4 73,-90.6 213.5,-47 227.7,70.6 z m 1176.3,1029.1 c -24.4,-15.7 118.5,-206.9 159.2,-213 25.2,-3.9 -2.4,60.8 -53.6,125.8 -15,19.1 -54,65.6 -90.5,85 -5.8,2.4 -11.3,4.6 -15.1,2.2 z m -1458.4,36.6 c 26.2,-47.4 101.6,-21.7 127.3,59.8 4.1,13.1 16.1,58.6 -4.8,93.1 -4.3,5.3 -8.3,10.4 -16.6,13 -50.2,16 -140.4,-103.5 -105.9,-165.9 z m 281,424.7 c 4.8,-2.2 15.4,6.2 4.9,42.2 -1.3,4.6 -3.4,10.8 -4.9,15.3 -8.9,-34 -8.9,-53.4 0,-57.5 z M 35209.2,5499 c 76.1,-100.2 235.5,-47 247.2,82.5 3,33.3 -2.5,95.3 -73.3,136.6 -10.2,4.5 -22.8,10.2 -39,12.9 -126.7,21.3 -213.7,-128.3 -134.9,-232 z m -86.5,367.3 c -12.7,6.4 -33.9,17.1 -63.7,17.6 -118.4,2 -182.5,-147.1 -102.3,-238.2 80.2,-91.1 226.8,-40.5 237.7,82 2.9,32.8 -2.6,94.5 -71.7,138.6 z m 1298.8,292.5 c 37.8,-16.2 45.9,62.1 15.8,152.1 -10.1,30.3 -32.3,84.8 -67.1,109 -7.6,4.6 -14.4,5.7 -20.1,3.4 -47.5,-19.1 11.9,-239.1 71.4,-264.5 z m -48.9,278.8 c 35,-13.9 24.8,60.7 -19.5,142.4 -12,22.1 -43.7,75.8 -79.6,98.2 -6.3,2.9 -12.2,5.7 -17.6,2.9 -34.8,-17.6 63.4,-222.4 116.7,-243.5 z m -1266.3,957 c -1,1.1 -4.2,2.5 -9.2,4.2 62.6,-14 131.5,-29.4 136.5,-30.5 24.1,-5.1 28.3,-4.2 30.6,-3.7 0,0.6 0,1.3 0,1.9 -11.4,8.9 -57.1,22.7 -111.1,33.6 -61.4,12.4 -119.7,18.3 -138.9,20.3 -14.5,1.5 -15.4,1.5 -19.8,1.5 0.2,-0.1 7.5,-1.7 19.5,-4.4 -6.2,1 -12.6,2.1 -19.3,3.1 -26,3.9 -48.9,6.5 -58.7,7.6 27.8,-4.8 51.2,-9.3 102.2,-20.8 52.8,-12 63,-13.9 68.2,-12.8 z m -169.8,33.5 c -0.2,0 -0.4,0 -0.6,0.1 15.3,-3.3 16.7,-3.5 18.3,-3.8 -0.3,0.2 -6.1,1.6 -17.7,3.7 z m -55,-118.5 c -1.1,-3.7 -10.7,-36.1 3.2,-53 14.5,-17.5 47.9,-3.5 51,53.5 1,19.1 -1.9,43.2 -7.4,60.1 -1.2,3 -2.8,7.2 -5.4,7.7 -6.6,1.1 -30.4,-33.5 -41.4,-68.3 z m -92.3,-198.5 c 21.4,-30.5 76.2,-12 92.4,59.8 1.8,8 9.9,49 -5.7,79.4 -2.6,3.9 -6.6,9.9 -14,10.8 -33,4.4 -106.6,-101.7 -72.7,-150 z m 1526.9,-1292.4 c -1.4,27.4 -9.9,94.4 -58.6,125.5 -7.4,4 -17.5,6.7 -25.2,6.7 -86.6,0.9 -120.1,-197.9 -46,-272.7 59.4,-59.9 135.8,22.9 129.8,140.5 z m -256.2,-193 c 1.2,34.2 -5.4,96.5 -63,129.7 -14.9,7.2 -28.5,8.6 -33.7,8.9 -111.8,6.2 -177.5,-172.6 -96.3,-262.1 71.3,-78.6 188.6,-3.6 193,123.5 z m -1259.3,804.1 c -10.1,6.6 -26.8,17.7 -51.6,19.6 -105.6,8.3 -174.8,-144.3 -104.2,-229.9 66,-80.2 191.8,-34 207,75.9 3.4,24.8 5.3,87.5 -51.2,134.4 z m 223.2,963.7 c -3.6,0.9 -8.5,2 -12.1,2.9 60.3,-24.8 84.8,-39 115.3,-57.9 -5.4,5 -12.4,12.8 -14.2,19.9 3.4,-0.4 7.8,-1 11.1,-1.5 -51.2,20.2 -86.1,34 -110.7,43.7 5,-2.8 8,-5.1 10.6,-7.1 z m 96.8,-156 c -0.9,-17.8 -11.2,-23.8 -32.3,-18.7 26.7,-25.8 42.5,-48.4 56.3,-80.9 4.2,13.1 10.5,27.1 30.9,27.3 0.9,0 2.2,-0.1 3.2,-0.1 -29,32.2 -29,32.2 -58.1,72.4 z m 36.7,47 c 35,-21.6 58.5,-40.5 84,-67.3 -3.6,15.9 -2.3,25 15,24.3 1,0 2.4,-0.2 3.4,-0.2 -35.2,20.9 -55.7,36.4 -95.3,66.6 0.9,-1 2,-2.3 2.8,-3.3 6.8,-9 14.6,-23.4 -9.9,-20.1 z m 87.2,-152.2 c 30.2,-25.6 48.9,-47.6 66.7,-78.5 4,13 10.1,27 33.6,28.4 1.2,0.1 2.7,0.1 3.8,0.1 -29.3,23.1 -48.9,43.2 -74.9,77.2 0.3,-18.9 -8.5,-27 -29.2,-27.2 z m 72.2,85.9 c 38.2,-21.9 64.3,-41.4 93.4,-69.6 -3.3,12.9 -5.2,26.8 14,27.8 1,0.1 2.3,0.1 3.3,0.1 -38.3,22.1 -62.5,39.3 -102.3,69.4 14,-19.4 11.3,-28.2 -8.4,-27.7 z m 106.5,-169 c 33.9,-25.7 55.7,-48.4 77.8,-81.2 3,15.6 8.9,30.5 31.8,33 1.2,0.2 2.8,0.2 4,0.3 -32.7,24 -54.7,44.8 -84.3,79.6 1.6,-21.3 -6.8,-30.5 -29.3,-31.7 z m 72.2,102.2 c 41.2,-23.2 69.8,-44.5 102,-76.1 -5,15.7 -8.3,32.5 14.7,33.5 1.2,0 2.7,0 3.8,0 -38.7,20.8 -66.7,39.3 -115.4,76.4 15.5,-21.8 13.9,-32.2 -5.1,-33.8 z m 120.4,-182.2 c 36.2,-26.2 60.1,-50 85,-85 2.1,16.9 7.3,32.9 31.4,35.4 1.2,0.1 2.8,0.2 4.1,0.3 -35.3,24.8 -60,47.5 -94.4,86.7 4,-24.1 -3.6,-34.9 -26.1,-37.4 z m 52.5,167.3 c 24.7,-30 25.1,-44.2 1.2,-46.1 49.1,-26.8 82.8,-52.5 119.9,-91.4 -9.4,22.1 -16.4,43.8 10.7,43.8 1.4,0 3.3,-0.2 4.6,-0.2 -45.1,23.9 -79.5,47.6 -136.4,93.9 z m 138.8,-245.5 c 40.5,-28.9 67.1,-56.3 94.9,-98 -1.6,24 1,46.4 29.8,47.7 1.5,0.1 3.5,0.1 4.9,0.1 -40,27.1 -68.3,53.4 -108.4,100.3 10.5,-31.9 4.2,-46.9 -21.2,-50.1 z m 123.4,-176.4 c -1.3,-33.3 -13.4,-48.4 -42,-52.1 38.1,-33.2 60.8,-64.2 80.9,-110.8 5.2,25.8 14.4,50.1 46.6,53.1 1.6,0.2 3.7,0.2 5.3,0.3 -37,30.2 -61.6,59.8 -90.8,109.5 z m 49.4,-249.2 c -10.2,-36.3 -27.6,-52.5 -60,-56.1 40.6,-57.2 40.6,-57.2 63.4,-121.6 7.4,17.7 22.7,54.6 69.8,55.1 2.1,0 4.8,-0.2 6.8,-0.2 -37,33.6 -58.7,66.9 -80,122.8 z M 36051,6059 c -41.6,36.1 -62.9,77 -75.8,145.9 -21.4,-44.7 -48.1,-61.8 -95.3,-60.9 45.9,-47.4 62.3,-92.9 58.5,-162.4 12.8,26.8 39.2,82.7 103.5,78.4 2.7,-0.2 6.4,-0.7 9.1,-1 z m -294.5,594.9 c 7.6,19.6 18.6,38.2 48,42 1.4,0.2 3.4,0.3 4.8,0.5 -33.2,28.4 -54.6,54 -79,94.5 -6.5,-25 -19.7,-35.8 -47.1,-38.3 34.4,-30.6 54.9,-58.3 73.3,-98.7 z m 73.4,-204.1 c -32.1,32.4 -50.3,61.3 -67.1,106.6 -14.7,-29.9 -34.1,-42.3 -69,-44.3 33.7,-34.1 51.5,-64.5 63.6,-108.5 8.4,13.4 25.7,41.1 66.6,45.7 1.7,0.2 4.1,0.3 5.9,0.5 z m -17.5,-273.8 c -37.1,35.3 -55.5,68.6 -68.1,123 -25.9,-34.8 -53.4,-47.5 -98.4,-45.5 39.1,-41.4 55.1,-80.2 57.1,-138 21.6,31.1 48.7,60 100.9,60.6 2.5,0 6,-0.1 8.5,-0.1 z m -275.2,578.9 c 9.1,17.8 21.8,34.7 52.3,37.5 1.5,0.1 3.4,0.2 4.9,0.3 -30.6,27.7 -49.8,52 -70.8,89.7 -7.9,-23.8 -23,-34.1 -52,-35.4 31.3,-29.2 49.7,-55 65.6,-92.1 z m 59.9,-198.5 c -34.7,45.6 -34.7,45.6 -60,97.2 -29.4,-25.7 -29.4,-25.7 -72.3,-36.5 30.6,-32.1 46.7,-61.6 55.6,-102 38.8,30.8 38.8,30.8 72,40 1.4,0.4 3.3,0.9 4.7,1.3 z m -35.1,-262.2 c -35.4,37.1 -51.7,69.9 -60.2,120.9 -26.7,-31.8 -55.8,-44 -100.3,-41.8 35.1,-41.6 48.3,-76.9 48.6,-130.1 13.8,16.6 42.4,51.2 103.3,51.2 2.6,0 6,-0.1 8.6,-0.2 z m -176.3,594.3 c -28.6,27.6 -45.5,51.7 -62.3,88.8 -11,-21.8 -26.9,-30.1 -54.8,-28.8 29.3,-30.6 44.6,-55.6 56.6,-92.3 10.7,16.1 24.8,31.2 55.4,32.2 1.5,0.1 3.6,0.1 5.1,0.1 z m -14,-224 c -29.8,32.5 -44.8,60.7 -55.4,104.2 -19.6,-24.9 -40.8,-33.7 -75.6,-31.4 30.1,-35.9 44,-66.9 49.6,-110.3 10.1,11.9 31.2,36.8 75.1,37.6 1.9,0 4.4,-0.1 6.3,-0.1 z m -57.8,-243.5 c -30.7,36.4 -44.2,70 -48.3,119.8 -30.4,-31.3 -61,-40.7 -105.8,-32.4 34.9,-42.4 47.5,-80.4 44.7,-135.5 22.3,26 50.1,49.8 101.1,48.5 2.5,-0.1 5.8,-0.3 8.3,-0.4 z m -175.3,538.4 c 6.8,9.8 21.1,30.3 52.4,29.5 1.3,-0.1 3.1,-0.2 4.4,-0.3 -27.4,40.4 -27.4,40.4 -47.9,87.4 -10.7,-21.5 -27.5,-28.8 -54.5,-23.6 25.2,-29.9 38,-56 45.6,-93 z m 21.6,-178.2 c 1.9,-0.1 4.4,-0.3 6.4,-0.4 -25.4,31.9 -37,59.7 -42.7,102.5 -22.1,-25.6 -45.4,-32.6 -80.3,-23.9 27.9,-37.5 38.6,-70.2 38.3,-116.9 17.3,21 38.7,40.3 78.3,38.7 z m -67.1,-232.9 c -29.3,58.8 -29.3,58.8 -37.9,126 -36.7,-32.8 -48.4,-35.9 -104.2,-27.6 33.3,-45.6 41.8,-85.5 30.6,-142.4 15.2,17.2 46.9,52.8 103.6,45.3 2.4,-0.3 5.6,-0.9 7.9,-1.3 z m 5.1,738.3 c 2.7,14.7 2.7,14.7 2.8,14.8 1.2,1.6 1.2,1.6 11.4,3.7 0.5,0.1 1.2,0.3 1.7,0.4 -18.4,12.2 -18.4,12.2 -85,65.6 2.7,-2.6 9.9,-9.7 12.6,-15.6 1.2,-2.7 3.8,-10.9 -12.9,-4.8 37.3,-27.1 55.4,-46.8 69.4,-64.1 z m -162.3,141.6 c 0.1,-0.1 0.3,-0.3 0.4,-0.4 1.3,-1 2.3,-1.8 3.4,-2.8 -0.6,0.6 -1.2,1.1 -1.8,1.7 1.8,-0.3 12.1,-3.8 68.8,-37.6 -4.8,3.6 -10.4,9.5 -14.2,14.2 2.8,-0.9 6.5,-2.2 9.2,-3.1 -38.8,16.7 -38.8,16.7 -54.6,23.4 -3.3,1.4 -7.9,3.2 -11.2,4.6 6.4,-1.9 12.2,-3.6 17.7,-5.3 -5.8,1.9 -10.6,3.3 -16.9,5.1 -0.3,0 -0.6,0.1 -0.8,0.2 132.4,-29.5 200.6,-53.4 227.7,-79.7 -3,-0.4 -7,-0.9 -10,-1.2 50.7,-19.9 80,-34.3 120.4,-59.3 -3.4,5.2 -6.4,13.2 -7,19.4 2.6,0.6 6,1.5 8.6,2.1 -1.7,0.7 -192,80 -205.6,88.6 51.9,-6.2 236.4,-56.6 256.5,-97.3 -3.5,-1 -8.1,-2.4 -11.5,-3.3 53.4,-20.4 85.6,-36.6 132.8,-66.8 -5.6,6.9 -12.4,18.1 -12.3,26.9 7.4,0.2 17.5,-0.3 24.8,-1.6 -38.7,13.8 -206.5,86.9 -229.1,108 53.1,-2 233.1,-58.1 265.9,-109.3 -6.9,-2.3 -16.9,-3.1 -24.2,-2.2 62.2,-21.7 112.9,-48.8 164.6,-88.1 -23.1,27.7 -23.1,28.2 -23,40.6 46.2,3.8 138.9,-54.5 174.1,-81.7 23.8,-18.3 97.7,-79.2 52,-93.3 16.1,-9.3 38.3,-21.9 60.8,-39.2 58.8,-45 153,-158.6 82,-169.6 51.4,-37.5 77.3,-66.8 110.8,-125.3 -4,20.4 -10,51.3 5.7,61.2 52.8,33 196.2,-169 168.6,-237.5 -11.1,-27.8 -72.3,-29.1 -157.5,132.2 7.3,-49.2 -1.3,-66.5 -35.1,-70.9 47.2,-42.1 68.4,-74.5 90.7,-138.9 1.2,23.1 3.1,61.7 29.8,68.8 69.9,18.7 168.5,-174.6 130.3,-255.2 -22.2,-46.6 -98,-31.9 -150.6,131 -16.9,-53.4 -16.9,-53.4 -60.9,-73.1 4.8,-5.2 11.3,-11.9 15.8,-17.3 68.6,-82.6 84.3,-261.4 -48.8,-253.3 90,-78.5 73,-208.4 22.2,-259.8 -27.4,-27.8 -165.7,-76.1 -176.4,158.4 -8.2,-13.3 -19.2,-31.3 -30.1,-42.5 -54.7,-56 -203.8,-46.2 -216.2,145.2 -42.2,-51.5 -77.3,-64.6 -144.5,-54.1 22.1,-20.8 73.8,-69.6 60.2,-153.4 -20.5,-126.3 -172.4,-167.6 -250.1,-68 -56.2,72.3 -50.5,255.6 135.7,245.8 -46.5,66.9 -46.5,66.9 -64.1,148.8 -40.8,-40.4 -74.8,-49.9 -134.7,-37.5 24,-35.1 60.3,-88.2 55.2,-143.9 -10.6,-116.1 -169.9,-175.8 -250.8,-63.9 -53.9,74.7 -40.8,255.1 146.8,234 -47.5,48.9 -61,85.2 -57.5,155 -5.4,-4.8 -12.4,-11.6 -18.1,-16 -78,-60.8 -230.8,-11.8 -202.6,163.4 -88.1,-71.3 -143.2,-33.9 -173.9,10 -39.7,56.9 -29.6,234 127.7,212.9 -33.7,52.6 -37.6,88.7 -16.4,154.3 -11.2,-15.4 -37.3,-51.5 -82.7,-47.5 -92.1,8 -85.3,153.7 -10.9,209.6 1.3,0.9 122.8,68.8 105.6,-140.9 37,46.3 60.3,43.5 92.7,39.7 -26.5,46 -30.3,63.9 -25.6,119.8 -10.6,-14 -26.6,-35.1 -59.3,-32.6 -66.7,5 -78.7,129.5 -17.8,185.1 38.8,35.4 91.3,-14.2 89.8,-111.6 29,27.5 29,27.5 61.6,31.9 -13.9,19.9 -13.9,19.9 -36.2,91 -6.1,-8.9 -14.4,-21.1 -29.1,-22.1 -65.8,-4.4 -67.8,128.7 -33.2,157.9 16.6,14 55.3,-26.4 68.1,-98.8 10.7,27.6 13,31 38.7,27.3 -23.8,27.5 -33.6,44.4 -50.3,86.3 2.3,-17.4 2.3,-17.4 -5,-28.1 -52.8,-6.1 -55.1,113.5 -55,114.8 29.7,-32.3 33.5,-38.1 54.8,-70.2 -1.3,5.4 -2.2,12.9 -2.3,18.4 2.3,1.2 5.4,2.8 7.7,4 -20.7,17.1 -39.6,36.3 -59.9,53.8 8.3,-7.6 10.3,-11.7 9.8,-13 -1.3,-0.2 -6.1,1.3 -20.2,21.8 z m 988.1,-346.1 c -19.4,15.4 -70,53.1 -119.6,70.1 -6.6,1.7 -17.7,4.7 -21.2,0.6 -17.8,-20.4 177.9,-179.8 215.9,-175.8 22.9,2.4 -7.2,51.3 -75.1,105.1 z m -1159.2,-287.8 c -8.2,6.6 -15.9,12.9 -30,16.2 -83.9,19.7 -165.2,-124.1 -114.5,-202.4 43.7,-67.5 154,-39.7 175.2,66.4 4.4,21.9 10.2,77.4 -30.7,119.8 z m 894.4,410.3 c 15.3,4.4 -18.1,37.5 -95.6,73.9 -16.8,7.8 -76.2,34.6 -136.4,47.5 -20.7,4.1 -22.1,1.7 -23,0.1 6.2,-20.2 232.7,-128.1 255,-121.5 z M 35770.8,5877 c -14.8,6 -28.7,11.6 -51.6,11.5 -123.6,-0.7 -186.8,-176.9 -95.4,-265.6 87.4,-84.6 223.7,-12.9 224.4,118.1 0.2,28.3 -7,98 -77.4,136 z m 571.4,237.4 c -7,33.2 -26.1,93.2 -74.6,122 -9.6,4.2 -18.6,8 -31.6,5.6 -77.3,-14.3 -65.1,-220.3 16.4,-279 63.3,-45.5 113.6,39.4 89.8,151.4 z m -197.9,640.5 c 39,-5.6 16.6,60.6 -43.6,128.7 -17.1,19.4 -62.2,66.7 -111.9,87.9 -7.1,2.3 -19,6.2 -25.4,1.3 -31.9,-24.1 122,-209.5 180.9,-217.9 z m -1058.8,-613.5 c -8.5,-125.5 -153.1,-175.6 -231,-80.1 -79.1,97 -3.1,255 114.5,238.2 11.6,-1.7 29.5,-6.2 48.4,-17.9 66.9,-46.5 69.9,-113.6 68.1,-140.2 z" /></clipPath></defs><rect
     style="fill:#0094a8;stroke-width:0.333999"
     id="rect1"
     width="7.7094097"
     height="5.8051667"
     x="2.6622422"
     y="3.4017537" /></svg>
