<?xml version="1.0" encoding="UTF-8" standalone="no"?>
<!-- Created with Inkscape (http://www.inkscape.org/) -->

<svg
   width="169.05917mm"
   height="126.46833mm"
   viewBox="0 0 169.05917 126.46833"
   version="1.1"
   id="svg1"
   xmlns="http://www.w3.org/2000/svg"
   xmlns:svg="http://www.w3.org/2000/svg">
  <defs
     id="defs1">
    <marker
       style="overflow:visible"
       id="marker261"
       refX="0"
       refY="0"
       orient="auto"
       markerWidth="1"
       markerHeight="1"
       viewBox="0 0 1 1"
       preserveAspectRatio="xMidYMid">
      <path
         style="fill:none;stroke:context-stroke;stroke-width:1"
         d="M 0,4 V -4"
         id="path261" />
    </marker>
    <marker
       style="overflow:visible"
       id="marker260"
       refX="0"
       refY="0"
       orient="auto"
       markerWidth="1"
       markerHeight="1"
       viewBox="0 0 1 1"
       preserveAspectRatio="xMidYMid">
      <path
         style="fill:none;stroke:context-stroke;stroke-width:1"
         d="M 0,4 V -4"
         id="path260" />
    </marker>
    <marker
       style="overflow:visible"
       id="marker254"
       refX="0"
       refY="0"
       orient="auto"
       markerWidth="1"
       markerHeight="1"
       viewBox="0 0 1 1"
       preserveAspectRatio="xMidYMid">
      <path
         style="fill:none;stroke:context-stroke;stroke-width:1"
         d="M 0,4 V -4"
         id="path254" />
    </marker>
    <marker
       style="overflow:visible"
       id="Stop"
       refX="0"
       refY="0"
       orient="auto"
       markerWidth="1"
       markerHeight="1"
       viewBox="0 0 1 1"
       preserveAspectRatio="xMidYMid">
      <path
         style="fill:none;stroke:context-stroke;stroke-width:1"
         d="M 0,4 V -4"
         id="path23" />
    </marker>
    <rect
       x="75.419235"
       y="379.16071"
       width="92.79509"
       height="95.223732"
       id="rect251" />
    <rect
       x="71.481613"
       y="385.21918"
       width="93.864891"
       height="95.760506"
       id="rect250" />
  </defs>
  <g
     id="layer1"
     transform="translate(-10.329829,-90.351941)">
    <g
       id="g261">
      <g
         id="g252">
        <path
           style="fill:none;stroke:#000000;stroke-width:1.5227;stroke-linejoin:miter;stroke-dasharray:none;stroke-opacity:1"
           d="M 62.925177,97.520009 H 82.39833 m 11.379657,0 h 13.200293 m 8.63485,0 h 22.99132 m 22.70309,0 h 17.28385 v 26.469931 m 0,14.1847 v 21.45279 m 0,17.87357 v 14.77595 h -15.25998 m -18.97708,0 h -24.83891 m -14.94505,0 H 81.885462 m -31.19624,0 H 38.009359 v -13.84436 m 0,-15.68747 v -33.69394 m 0,-17.35616 0.0099,-14.175011 h 10.752987"
           id="path245" />
        <path
           style="fill:none;stroke:#000000;stroke-width:0.507567;stroke-linejoin:miter;stroke-dasharray:none;stroke-opacity:1"
           d="m 73.483175,97.728169 v 36.117741 m 0,7.79584 v 7.79584"
           id="path246" />
        <path
           style="fill:none;stroke:#000000;stroke-width:0.507567;stroke-linejoin:miter;stroke-dasharray:none;stroke-opacity:1"
           d="m 38.05571,149.47716 h 42.872244 m 9.569432,0 h 16.510954 m 11.93444,0 h 10.22223 l 0.43203,42.69202"
           id="path247" />
        <path
           style="fill:none;stroke:#000000;stroke-width:0.507567;stroke-linejoin:miter;stroke-dasharray:none;stroke-opacity:1"
           d="m 96.193531,149.39565 v 42.63711"
           id="path248" />
        <path
           style="fill:none;stroke:#000000;stroke-width:0.507567;stroke-linejoin:miter;stroke-dasharray:none;stroke-opacity:1"
           d="m 73.401513,124.86408 h 15.594664 m 8.587377,0 h 9.555816 m 7.45251,0 h 5.00228 V 97.703299"
           id="path249" />
        <path
           style="fill:none;stroke:#000000;stroke-width:0.507567;stroke-linejoin:miter;stroke-dasharray:none;stroke-opacity:1"
           d="M 102.54408,97.425379 V 124.57748"
           id="path250" />
        <text
           xml:space="preserve"
           transform="scale(0.26458333)"
           id="text250"
           style="font-style:normal;font-variant:normal;font-weight:normal;font-stretch:normal;font-size:16px;line-height:0.95;font-family:'Century Gothic';-inkscape-font-specification:'Century Gothic';white-space:pre;shape-inside:url(#rect250);display:inline;fill:none;stroke:#000000;stroke-width:1.88976;stroke-linejoin:miter;stroke-dasharray:none;stroke-opacity:1" />
        <text
           xml:space="preserve"
           transform="scale(0.26458333)"
           id="text251"
           style="font-style:normal;font-variant:normal;font-weight:normal;font-stretch:normal;font-size:16px;line-height:0.95;font-family:'Century Gothic';-inkscape-font-specification:'Century Gothic';white-space:pre;shape-inside:url(#rect251);display:inline;fill:none;stroke:#000000;stroke-width:0.755906;stroke-linejoin:miter;stroke-dasharray:none;stroke-opacity:1" />
        <path
           d="m 73.962891,380.40334 h 1.328125 l 2.9375,4.73437 2.890625,-4.73437 h 1.328125 l -3.640625,6 v 5.49219 h -1.132813 v -5.49219 z m 19.3125,3.95312 h -1.726563 v 7.53907 h -1.101562 v -7.53907 h -4.289063 v 7.53907 h -1.101562 v -7.53907 h -1.726563 v -0.96093 h 9.945313 z m 0.804687,-0.96093 h 1.164063 l 2.84375,6.1875 2.820309,-6.1875 h 1.17188 l -3.890627,8.5 h -0.195312 z m 13.695312,-0.21875 q 1.96094,0 3.25,1.42187 1.17188,1.29688 1.17188,3.07031 0,1.78125 -1.24219,3.11719 -1.23438,1.32813 -3.17969,1.32813 -1.95312,0 -3.19531,-1.32813 -1.23438,-1.33594 -1.23438,-3.11719 0,-1.76562 1.17188,-3.0625 1.28906,-1.42968 3.25781,-1.42968 z m 0,1.07031 q -1.35937,0 -2.33594,1.00781 -0.97656,1.00781 -0.97656,2.4375 0,0.92188 0.44531,1.71875 0.44532,0.79688 1.20313,1.23438 0.75781,0.42968 1.66406,0.42968 0.90625,0 1.66406,-0.42968 0.75782,-0.4375 1.20313,-1.23438 0.44531,-0.79687 0.44531,-1.71875 0,-1.42969 -0.98437,-2.4375 -0.97657,-1.00781 -2.32813,-1.00781 z m 8.71094,0.57031 q -1.28906,-0.86719 -1.28906,-2.26562 0,-1.17969 0.90625,-1.91407 0.91406,-0.74218 2.25781,-0.74218 0.98437,0 1.85937,0.21875 l -0.28125,0.97656 q -0.65625,-0.17188 -1.49218,-0.17188 -0.98438,0 -1.5625,0.44532 -0.57032,0.4375 -0.57032,1.15625 0,0.625 0.38282,1.07031 0.38281,0.44531 2.01562,1.10156 2.63281,1.05469 2.63281,3.64063 0,1.59375 -1.08593,2.6875 -1.07813,1.09375 -2.67188,1.09375 -1.59375,0 -2.67969,-1.08594 -1.08593,-1.09375 -1.08593,-2.69531 0,-2.57813 2.66406,-3.51563 z m 1.10156,0.78125 q -1.10937,0 -1.88281,0.8125 -0.76563,0.8125 -0.76563,1.94531 0,1.14063 0.75782,1.92969 0.76562,0.78906 1.89062,0.78906 1.125,0 1.88281,-0.78906 0.76563,-0.78906 0.76563,-1.92969 0,-1.13281 -0.77344,-1.94531 -0.76562,-0.8125 -1.875,-0.8125 z m 0,-1.03906 z m 11.42969,5.78125 q -0.22656,0.80469 -0.89063,1.28906 -0.65625,0.48438 -1.53125,0.48438 -1.6875,0 -2.65625,-1.08594 -0.96875,-1.09375 -0.96875,-3.01563 0,-2.03125 1.30469,-3.375 1.30469,-1.35156 3.34375,-1.46093 l 0.0859,1.05468 q -1.65625,0.125 -2.64063,1.17188 -0.97656,1.04687 -0.97656,2.64844 0,1.46093 0.64063,2.26562 0.64843,0.79688 1.78125,0.79688 0.90625,0 1.42968,-0.78125 0.52344,-0.78125 0.52344,-2.25 v -1.04688 h 1.10938 v 1.04688 q 0,1.46875 0.52343,2.25 0.52344,0.78125 1.42969,0.78125 1.09375,0 1.75781,-0.78125 0.66407,-0.78125 0.66407,-2.28125 0,-1.625 -0.98438,-2.66407 -0.97656,-1.03906 -2.63281,-1.15625 l 0.0859,-1.05468 q 2.03125,0.10156 3.33593,1.46093 1.3125,1.35157 1.3125,3.375 0,1.92188 -0.96875,3.01563 -0.96875,1.08594 -2.65625,1.08594 -0.875,0 -1.53906,-0.48438 -0.65625,-0.48437 -0.88281,-1.28906 z m 15.39844,1.54687 h -1.09375 v -1.52343 q -1.3125,1.74218 -3.1875,1.74218 -1.35938,0 -2.03907,-0.90625 v 3.80469 h -1.09375 v -11.61719 h 1.09375 v 4.05469 q 0,1.27344 0.125,1.98438 0.125,0.71093 0.66407,1.19531 0.54687,0.47656 1.46875,0.47656 1.01562,0 1.78125,-0.64844 0.77343,-0.65625 0.97656,-1.42968 0.21094,-0.78125 0.21094,-2.51563 v -3.11719 h 1.09375 z m 10.90625,-8.49218 v 8.5 h -1.07813 v -1.46094 q -0.6875,0.83594 -1.54687,1.25781 -0.85157,0.42188 -1.86719,0.42188 -1.80469,0 -3.08594,-1.30469 -1.27344,-1.3125 -1.27344,-3.1875 0,-1.83594 1.28907,-3.14063 1.28906,-1.30468 3.10156,-1.30468 1.04687,0 1.89062,0.44531 0.85157,0.44531 1.49219,1.33594 v -1.5625 z m -4.375,0.83593 q -0.91407,0 -1.6875,0.45313 -0.77344,0.44531 -1.23438,1.25781 -0.45312,0.8125 -0.45312,1.71875 0,0.89844 0.46093,1.71875 0.46094,0.82031 1.23438,1.28125 0.78125,0.45313 1.67187,0.45313 0.89844,0 1.70313,-0.45313 0.80469,-0.45312 1.23437,-1.22656 0.4375,-0.77344 0.4375,-1.74219 0,-1.47656 -0.97656,-2.46875 -0.96875,-0.99219 -2.39062,-0.99219 z m 0.83593,-4.82031 -0.21875,2.64063 h -0.92187 l -0.22656,-2.64063 z m 10.82032,4.94531 h -2.27344 v 7.53907 h -1.10156 v -7.53907 h -2.27344 v -0.96093 h 5.64844 z m 1.44531,-0.96093 h 1.10156 v 8.5 h -1.10156 z m 7.39062,-0.21875 q 1.96094,0 3.25,1.42187 1.17188,1.29688 1.17188,3.07031 0,1.78125 -1.24219,3.11719 -1.23437,1.32813 -3.17969,1.32813 -1.95312,0 -3.19531,-1.32813 -1.23437,-1.33594 -1.23437,-3.11719 0,-1.76562 1.17187,-3.0625 1.28906,-1.42968 3.25781,-1.42968 z m 0,1.07031 q -1.35937,0 -2.33593,1.00781 -0.97657,1.00781 -0.97657,2.4375 0,0.92188 0.44532,1.71875 0.44531,0.79688 1.20312,1.23438 0.75781,0.42968 1.66406,0.42968 0.90625,0 1.66407,-0.42968 0.75781,-0.4375 1.20312,-1.23438 0.44531,-0.79687 0.44531,-1.71875 0,-1.42969 -0.98437,-2.4375 -0.97656,-1.00781 -2.32813,-1.00781 z m 12.625,-3.84375 h 2.25782 v 11.49219 h -1.14063 v -10.36719 h -1.80469 z"
           id="text252"
           style="-inkscape-font-specification:'Century Gothic';stroke-width:0.755906"
           transform="matrix(0,-0.26458333,0.26458333,0,-46.232142,156.04646)"
           aria-label="Υπνοδωμάτιο 1" />
        <path
           d="m 80.611328,381.53615 h -4.617187 v 10.35938 h -1.140625 v -11.49219 h 5.757812 z m 2.398438,8.75781 v 4.71094 h -1.09375 v -7.10156 q 0,-2.07813 1.265625,-3.39844 1.273437,-1.32812 3.164062,-1.32812 1.898438,0 3.15625,1.32812 1.265625,1.32031 1.265625,3.16406 0,1.875 -1.273437,3.16407 -1.273438,1.28125 -3.148438,1.28125 -2.09375,0 -3.335937,-1.82032 z m 3.335937,-6.04687 q -1.390625,0 -2.351562,1.01562 -0.960938,1.01563 -0.960938,2.42969 0,1.39844 0.9375,2.39063 0.945313,0.99218 2.375,0.99218 1.5,0 2.40625,-1.00781 0.90625,-1.00781 0.90625,-2.375 0,-1.41406 -0.96875,-2.42969 -0.960937,-1.01562 -2.34375,-1.01562 z m 14.921877,-0.85156 v 8.5 h -1.07813 v -1.46094 q -0.687497,0.83594 -1.546872,1.25781 -0.851562,0.42188 -1.867187,0.42188 -1.804688,0 -3.085938,-1.30469 -1.273437,-1.3125 -1.273437,-3.1875 0,-1.83594 1.289062,-3.14063 1.289063,-1.30468 3.101563,-1.30468 1.046875,0 1.890625,0.44531 0.851562,0.44531 1.492184,1.33594 v -1.5625 z m -4.375002,0.83593 q -0.914062,0 -1.6875,0.45313 -0.773437,0.44531 -1.234375,1.25781 -0.453125,0.8125 -0.453125,1.71875 0,0.89844 0.460938,1.71875 0.460937,0.82031 1.234375,1.28125 0.78125,0.45313 1.671875,0.45313 0.898437,0 1.703125,-0.45313 0.804687,-0.45312 1.234375,-1.22656 0.437504,-0.77344 0.437504,-1.74219 0,-1.47656 -0.976567,-2.46875 -0.96875,-0.99219 -2.390625,-0.99219 z m 12.289062,7.86719 v 2.90625 h -1.10156 v -2.91406 q -2.1875,-0.14063 -3.47656,-1.30469 -1.28125,-1.17187 -1.28125,-3.11719 0,-1.52343 0.88281,-2.64062 0.89062,-1.11719 2.42187,-1.64063 l 0.35157,1.03907 q -2.53907,0.90625 -2.53907,3.26562 0,3.01563 3.64063,3.32031 v -7.8125 q 0.30469,-0.0234 0.55469,-0.0234 2.46093,0 3.88281,1.20312 1.42969,1.19531 1.42969,3.28906 0,1.9375 -1.28907,3.10938 -1.28125,1.17187 -3.47656,1.32031 z m 0,-7.85156 v 6.76562 q 3.64063,-0.33593 3.64063,-3.32031 0,-1.57031 -0.98438,-2.48437 -0.97656,-0.91407 -2.65625,-0.96094 z m 12.03906,6.74219 q -1.0625,1.13281 -2.80468,1.13281 -1.25,0 -2.05469,-0.72656 -0.79688,-0.72657 -0.79688,-1.92188 0,-1.60156 1.53125,-2.24219 -1.17187,-0.47656 -1.17187,-1.80468 0,-1.00782 0.71094,-1.63282 0.71875,-0.63281 1.78906,-0.63281 1.28906,0 2.4375,0.96094 l -0.61719,0.75781 q -0.89062,-0.6875 -1.77344,-0.6875 -0.6875,0 -1.09375,0.375 -0.39843,0.36719 -0.39843,1.01563 0,0.60937 0.41406,1 0.41406,0.39062 1.04687,0.39062 h 0.57032 v 0.9375 h -0.67188 q -0.6875,0 -1.14844,0.44531 -0.45312,0.44532 -0.45312,1.125 0,0.75 0.48437,1.1875 0.48438,0.42969 1.28907,0.42969 1.23437,0 2.02343,-0.89062 z m 1.35938,-7.59375 h 1.10156 v 8.5 h -1.10156 z m 1.22656,-3.98438 -0.21875,2.64063 h -0.92187 l -0.22657,-2.64063 z m 6.16406,3.76563 q 1.96094,0 3.25,1.42187 1.17188,1.29688 1.17188,3.07031 0,1.78125 -1.24219,3.11719 -1.23437,1.32813 -3.17969,1.32813 -1.95312,0 -3.19531,-1.32813 -1.23437,-1.33594 -1.23437,-3.11719 0,-1.76562 1.17187,-3.0625 1.28906,-1.42968 3.25781,-1.42968 z m 0,1.07031 q -1.35937,0 -2.33593,1.00781 -0.97657,1.00781 -0.97657,2.4375 0,0.92188 0.44532,1.71875 0.44531,0.79688 1.20312,1.23438 0.75781,0.42968 1.66406,0.42968 0.90625,0 1.66407,-0.42968 0.75781,-0.4375 1.20312,-1.23438 0.44531,-0.79687 0.44531,-1.71875 0,-1.42969 -0.98437,-2.4375 -0.97656,-1.00781 -2.32813,-1.00781 z"
           id="text252-3"
           style="-inkscape-font-specification:'Century Gothic';stroke-width:0.755906"
           transform="matrix(0,-0.26458333,0.26458333,0,10.009949,198.71605)"
           aria-label="Γραφείο" />
        <path
           d="m 73.962891,380.40334 h 1.328125 l 2.9375,4.73437 2.890625,-4.73437 h 1.328125 l -3.640625,6 v 5.49219 h -1.132813 v -5.49219 z m 19.3125,3.95312 h -1.726563 v 7.53907 h -1.101562 v -7.53907 h -4.289063 v 7.53907 h -1.101562 v -7.53907 h -1.726563 v -0.96093 h 9.945313 z m 0.804687,-0.96093 h 1.164063 l 2.84375,6.1875 2.820309,-6.1875 h 1.17188 l -3.890627,8.5 h -0.195312 z m 13.695312,-0.21875 q 1.96094,0 3.25,1.42187 1.17188,1.29688 1.17188,3.07031 0,1.78125 -1.24219,3.11719 -1.23438,1.32813 -3.17969,1.32813 -1.95312,0 -3.19531,-1.32813 -1.23438,-1.33594 -1.23438,-3.11719 0,-1.76562 1.17188,-3.0625 1.28906,-1.42968 3.25781,-1.42968 z m 0,1.07031 q -1.35937,0 -2.33594,1.00781 -0.97656,1.00781 -0.97656,2.4375 0,0.92188 0.44531,1.71875 0.44532,0.79688 1.20313,1.23438 0.75781,0.42968 1.66406,0.42968 0.90625,0 1.66406,-0.42968 0.75782,-0.4375 1.20313,-1.23438 0.44531,-0.79687 0.44531,-1.71875 0,-1.42969 -0.98437,-2.4375 -0.97657,-1.00781 -2.32813,-1.00781 z m 8.71094,0.57031 q -1.28906,-0.86719 -1.28906,-2.26562 0,-1.17969 0.90625,-1.91407 0.91406,-0.74218 2.25781,-0.74218 0.98437,0 1.85937,0.21875 l -0.28125,0.97656 q -0.65625,-0.17188 -1.49218,-0.17188 -0.98438,0 -1.5625,0.44532 -0.57032,0.4375 -0.57032,1.15625 0,0.625 0.38282,1.07031 0.38281,0.44531 2.01562,1.10156 2.63281,1.05469 2.63281,3.64063 0,1.59375 -1.08593,2.6875 -1.07813,1.09375 -2.67188,1.09375 -1.59375,0 -2.67969,-1.08594 -1.08593,-1.09375 -1.08593,-2.69531 0,-2.57813 2.66406,-3.51563 z m 1.10156,0.78125 q -1.10937,0 -1.88281,0.8125 -0.76563,0.8125 -0.76563,1.94531 0,1.14063 0.75782,1.92969 0.76562,0.78906 1.89062,0.78906 1.125,0 1.88281,-0.78906 0.76563,-0.78906 0.76563,-1.92969 0,-1.13281 -0.77344,-1.94531 -0.76562,-0.8125 -1.875,-0.8125 z m 0,-1.03906 z m 11.42969,5.78125 q -0.22656,0.80469 -0.89063,1.28906 -0.65625,0.48438 -1.53125,0.48438 -1.6875,0 -2.65625,-1.08594 -0.96875,-1.09375 -0.96875,-3.01563 0,-2.03125 1.30469,-3.375 1.30469,-1.35156 3.34375,-1.46093 l 0.0859,1.05468 q -1.65625,0.125 -2.64063,1.17188 -0.97656,1.04687 -0.97656,2.64844 0,1.46093 0.64063,2.26562 0.64843,0.79688 1.78125,0.79688 0.90625,0 1.42968,-0.78125 0.52344,-0.78125 0.52344,-2.25 v -1.04688 h 1.10938 v 1.04688 q 0,1.46875 0.52343,2.25 0.52344,0.78125 1.42969,0.78125 1.09375,0 1.75781,-0.78125 0.66407,-0.78125 0.66407,-2.28125 0,-1.625 -0.98438,-2.66407 -0.97656,-1.03906 -2.63281,-1.15625 l 0.0859,-1.05468 q 2.03125,0.10156 3.33593,1.46093 1.3125,1.35157 1.3125,3.375 0,1.92188 -0.96875,3.01563 -0.96875,1.08594 -2.65625,1.08594 -0.875,0 -1.53906,-0.48438 -0.65625,-0.48437 -0.88281,-1.28906 z m 15.39844,1.54687 h -1.09375 v -1.52343 q -1.3125,1.74218 -3.1875,1.74218 -1.35938,0 -2.03907,-0.90625 v 3.80469 h -1.09375 v -11.61719 h 1.09375 v 4.05469 q 0,1.27344 0.125,1.98438 0.125,0.71093 0.66407,1.19531 0.54687,0.47656 1.46875,0.47656 1.01562,0 1.78125,-0.64844 0.77343,-0.65625 0.97656,-1.42968 0.21094,-0.78125 0.21094,-2.51563 v -3.11719 h 1.09375 z m 10.90625,-8.49218 v 8.5 h -1.07813 v -1.46094 q -0.6875,0.83594 -1.54687,1.25781 -0.85157,0.42188 -1.86719,0.42188 -1.80469,0 -3.08594,-1.30469 -1.27344,-1.3125 -1.27344,-3.1875 0,-1.83594 1.28907,-3.14063 1.28906,-1.30468 3.10156,-1.30468 1.04687,0 1.89062,0.44531 0.85157,0.44531 1.49219,1.33594 v -1.5625 z m -4.375,0.83593 q -0.91407,0 -1.6875,0.45313 -0.77344,0.44531 -1.23438,1.25781 -0.45312,0.8125 -0.45312,1.71875 0,0.89844 0.46093,1.71875 0.46094,0.82031 1.23438,1.28125 0.78125,0.45313 1.67187,0.45313 0.89844,0 1.70313,-0.45313 0.80469,-0.45312 1.23437,-1.22656 0.4375,-0.77344 0.4375,-1.74219 0,-1.47656 -0.97656,-2.46875 -0.96875,-0.99219 -2.39062,-0.99219 z m 0.83593,-4.82031 -0.21875,2.64063 h -0.92187 l -0.22656,-2.64063 z m 10.82032,4.94531 h -2.27344 v 7.53907 h -1.10156 v -7.53907 h -2.27344 v -0.96093 h 5.64844 z m 1.44531,-0.96093 h 1.10156 v 8.5 h -1.10156 z m 7.39062,-0.21875 q 1.96094,0 3.25,1.42187 1.17188,1.29688 1.17188,3.07031 0,1.78125 -1.24219,3.11719 -1.23437,1.32813 -3.17969,1.32813 -1.95312,0 -3.19531,-1.32813 -1.23437,-1.33594 -1.23437,-3.11719 0,-1.76562 1.17187,-3.0625 1.28906,-1.42968 3.25781,-1.42968 z m 0,1.07031 q -1.35937,0 -2.33593,1.00781 -0.97657,1.00781 -0.97657,2.4375 0,0.92188 0.44532,1.71875 0.44531,0.79688 1.20312,1.23438 0.75781,0.42968 1.66406,0.42968 0.90625,0 1.66407,-0.42968 0.75781,-0.4375 1.20312,-1.23438 0.44531,-0.79687 0.44531,-1.71875 0,-1.42969 -0.98437,-2.4375 -0.97656,-1.00781 -2.32813,-1.00781 z m 11.51563,-0.24219 h -1.10156 q 0.0469,-1.70312 1.13281,-2.79687 1.09375,-1.09375 2.69531,-1.09375 1.58594,0 2.5625,1.02343 0.98438,1.02344 0.98438,2.41407 0,0.97656 -0.46875,1.83593 -0.46875,0.85157 -1.82032,2.3125 l -2.85937,3.08594 h 5.30469 v 1.10938 h -7.80469 l 4.39062,-4.74219 q 1.33594,-1.42969 1.73438,-2.11719 0.40625,-0.69531 0.40625,-1.46094 0,-0.96875 -0.72656,-1.66406 -0.71875,-0.70312 -1.76563,-0.70312 -1.10156,0 -1.83594,0.73437 -0.72656,0.73438 -0.82812,2.0625 z"
           id="text252-1"
           style="-inkscape-font-specification:'Century Gothic';stroke-width:0.755906"
           transform="matrix(0.26458333,0,0,0.26458333,31.894341,68.917893)"
           aria-label="Υπνοδωμάτιο 2" />
        <path
           d="m 74.345703,391.89553 1.632813,-11.49219 h 0.1875 l 4.671875,9.42969 4.625,-9.42969 h 0.1875 l 1.648437,11.49219 h -1.132812 l -1.125,-8.21875 -4.0625,8.21875 h -0.289063 l -4.117187,-8.28125 -1.117188,8.28125 z m 24.164063,-7.53907 h -1.726563 v 7.53907 h -1.101562 v -7.53907 h -4.289063 v 7.53907 h -1.101562 v -7.53907 h -1.726563 v -0.96093 h 9.945313 z m 10.078124,-0.96093 v 8.5 h -1.07812 v -1.46094 q -0.6875,0.83594 -1.54688,1.25781 -0.85156,0.42188 -1.86719,0.42188 -1.80468,0 -3.08593,-1.30469 -1.273442,-1.3125 -1.273442,-3.1875 0,-1.83594 1.289062,-3.14063 1.28906,-1.30468 3.10156,-1.30468 1.04688,0 1.89063,0.44531 0.85156,0.44531 1.49219,1.33594 v -1.5625 z m -4.375,0.83593 q -0.91406,0 -1.6875,0.45313 -0.77344,0.44531 -1.23437,1.25781 -0.45313,0.8125 -0.45313,1.71875 0,0.89844 0.46094,1.71875 0.46094,0.82031 1.23437,1.28125 0.78125,0.45313 1.67188,0.45313 0.89844,0 1.70312,-0.45313 0.80469,-0.45312 1.23438,-1.22656 0.4375,-0.77344 0.4375,-1.74219 0,-1.47656 -0.97656,-2.46875 -0.96875,-0.99219 -2.39063,-0.99219 z m 0.83594,-4.82031 -0.21875,2.64063 h -0.92188 l -0.22656,-2.64063 z m 5.19531,3.98438 h 1.16406 l 2.84375,6.1875 2.82032,-6.1875 h 1.17187 l -3.89062,8.5 h -0.19532 z m 9.50781,0 h 1.10157 v 8.5 h -1.10157 z m 7.39063,-0.21875 q 1.96094,0 3.25,1.42187 1.17187,1.29688 1.17187,3.07031 0,1.78125 -1.24218,3.11719 -1.23438,1.32813 -3.17969,1.32813 -1.95313,0 -3.19531,-1.32813 -1.23438,-1.33594 -1.23438,-3.11719 0,-1.76562 1.17188,-3.0625 1.28906,-1.42968 3.25781,-1.42968 z m 0,1.07031 q -1.35938,0 -2.33594,1.00781 -0.97656,1.00781 -0.97656,2.4375 0,0.92188 0.44531,1.71875 0.44531,0.79688 1.20313,1.23438 0.75781,0.42968 1.66406,0.42968 0.90625,0 1.66406,-0.42968 0.75781,-0.4375 1.20313,-1.23438 0.44531,-0.79687 0.44531,-1.71875 0,-1.42969 -0.98438,-2.4375 -0.97656,-1.00781 -2.32812,-1.00781 z"
           id="text252-6"
           style="-inkscape-font-specification:'Century Gothic';stroke-width:0.755906"
           transform="matrix(0.26458333,0,0,0.26458333,60.936424,9.9355026)"
           aria-label="Μπάνιο" />
        <path
           d="m 74.220703,380.40334 h 1.179688 l 2.335937,8.28125 3.296875,-8.28125 h 0.234375 l 3.257813,8.28125 2.382812,-8.28125 h 1.171875 l -3.296875,11.49219 h -0.21875 l -3.40625,-8.69532 -3.476562,8.69532 h -0.21875 z m 26.710937,2.13281 -0.90625,0.69531 q -0.749999,-0.97656 -1.804687,-1.47656 -1.046875,-0.50781 -2.304687,-0.50781 -1.375,0 -2.546875,0.66406 -1.171875,0.65625 -1.820313,1.77344 -0.640625,1.10937 -0.640625,2.5 0,2.10156 1.4375,3.50781 1.445313,1.40625 3.640625,1.40625 2.414063,0 4.039062,-1.89062 l 0.90625,0.6875 q -0.85937,1.09375 -2.148437,1.69531 -1.28125,0.59375 -2.867187,0.59375 -3.015625,0 -4.757813,-2.00781 -1.460937,-1.69532 -1.460937,-4.09375 0,-2.52344 1.765625,-4.24219 1.773437,-1.72656 4.4375,-1.72656 1.609375,0 2.90625,0.64062 1.296879,0.63281 2.124999,1.78125 z"
           id="text252-6-8"
           style="-inkscape-font-specification:'Century Gothic';stroke-width:0.755906"
           transform="matrix(0.26458333,0,0,0.26458333,87.748061,9.8331833)"
           aria-label="WC" />
        <path
           d="m 80.712891,391.89553 h -6.726563 l 3.210938,-5.73438 -3.164063,-5.75781 h 6.5625 v 1.10937 h -4.6875 l 2.578125,4.65625 -2.601562,4.60938 h 4.828125 z m 10.46875,-8.5 v 8.5 h -1.078125 v -1.46094 q -0.6875,0.83594 -1.546875,1.25781 -0.851563,0.42188 -1.867188,0.42188 -1.804687,0 -3.085937,-1.30469 -1.273438,-1.3125 -1.273438,-3.1875 0,-1.83594 1.289063,-3.14063 1.289062,-1.30468 3.101562,-1.30468 1.046875,0 1.890625,0.44531 0.851563,0.44531 1.492188,1.33594 v -1.5625 z m -4.375,0.83593 q -0.914063,0 -1.6875,0.45313 -0.773438,0.44531 -1.234375,1.25781 -0.453125,0.8125 -0.453125,1.71875 0,0.89844 0.460937,1.71875 0.460938,0.82031 1.234375,1.28125 0.78125,0.45313 1.671875,0.45313 0.898438,0 1.703125,-0.45313 0.804688,-0.45312 1.234375,-1.22656 0.4375,-0.77344 0.4375,-1.74219 0,-1.47656 -0.976562,-2.46875 -0.96875,-0.99219 -2.390625,-0.99219 z m 13.999999,7.66407 h -1.164062 l -2.835937,-6.54688 -2.921875,6.54688 h -1.15625 l 3.492187,-7.85938 -1.71875,-3.92187 h 1.15625 z m 5.4375,-8.71875 q 1.96094,0 3.25,1.42187 1.17188,1.29688 1.17188,3.07031 0,1.78125 -1.24219,3.11719 -1.23438,1.32813 -3.17969,1.32813 -1.95312,0 -3.19531,-1.32813 -1.23438,-1.33594 -1.23438,-3.11719 0,-1.76562 1.17188,-3.0625 1.28906,-1.42968 3.25781,-1.42968 z m 0,1.07031 q -1.35937,0 -2.33594,1.00781 -0.97656,1.00781 -0.97656,2.4375 0,0.92188 0.44531,1.71875 0.44532,0.79688 1.20313,1.23438 0.75781,0.42968 1.66406,0.42968 0.90625,0 1.66406,-0.42968 0.75782,-0.4375 1.20313,-1.23438 0.44531,-0.79687 0.44531,-1.71875 0,-1.42969 -0.98437,-2.4375 -0.97657,-1.00781 -2.32813,-1.00781 z m 0.67969,-4.83594 -0.21875,2.64063 h -0.92188 l -0.22656,-2.64063 z m 4.96875,3.98438 h 1.16406 l 2.84375,6.1875 2.82031,-6.1875 h 1.17188 l -3.89063,8.5 h -0.19531 z m 9.50781,0 h 1.10156 v 8.5 h -1.10156 z"
           id="text252-6-3"
           style="-inkscape-font-specification:'Century Gothic';stroke-width:0.755906"
           transform="matrix(0.26458333,0,0,0.26458333,123.23244,16.528084)"
           aria-label="Σαλόνι" />
        <path
           d="m 74.869141,380.40334 h 1.171875 v 4.3125 l 4.585937,-4.3125 h 1.554688 l -5.523438,5.15625 5.953125,6.33594 h -1.523437 l -5.046875,-5.35938 v 5.35938 h -1.171875 z m 13.296875,2.77344 q 1.960937,0 3.25,1.42187 1.171875,1.29688 1.171875,3.07031 0,1.78125 -1.242188,3.11719 -1.234375,1.32813 -3.179687,1.32813 -1.953125,0 -3.195313,-1.32813 -1.234375,-1.33594 -1.234375,-3.11719 0,-1.76562 1.171875,-3.0625 1.289063,-1.42968 3.257813,-1.42968 z m 0,1.07031 q -1.359375,0 -2.335938,1.00781 -0.976562,1.00781 -0.976562,2.4375 0,0.92188 0.445312,1.71875 0.445313,0.79688 1.203125,1.23438 0.757813,0.42968 1.664063,0.42968 0.90625,0 1.664062,-0.42968 0.757813,-0.4375 1.203125,-1.23438 0.445313,-0.79687 0.445313,-1.71875 0,-1.42969 -0.984375,-2.4375 -0.976563,-1.00781 -2.328125,-1.00781 z m 6.289062,-0.85156 h 1.101563 v 3.96875 q 0,1.27343 0.140625,1.96093 0.140625,0.67969 0.804687,1.20313 0.664063,0.52344 1.679688,0.52344 1.382812,0 2.093749,-0.92188 0.71875,-0.92187 0.71875,-2.48437 0,-2.13282 -1.984374,-3.47657 l 0.601562,-1 q 2.500002,1.46875 2.500002,4.67969 0,1.875 -1.0625,3.07031 -1.062502,1.19532 -2.867189,1.19532 -1.671875,0 -2.703125,-0.97657 -1.023438,-0.97656 -1.023438,-3.64843 z m 11.500002,11.67187 0.28125,-0.98437 q 0.49219,0.125 0.92969,0.125 1.92968,0 1.92968,-1.23438 0,-0.46094 -0.42968,-0.73437 -0.42969,-0.27344 -1.61719,-0.5 -3.20313,-0.61719 -3.20313,-3.78907 0,-1.64843 1.14063,-3.27343 1.14062,-1.625 3.6875,-3.60157 h -3.92969 v -0.96093 h 5.27344 v 0.96093 q -2.8125,2.36719 -3.9375,3.875 -1.11719,1.5 -1.11719,2.92188 0,1.21875 0.55469,1.92187 0.5625,0.69532 2.03906,1 1.78906,0.36719 2.21875,0.88282 0.4375,0.50781 0.42969,1.25 0,1.07812 -0.82813,1.6875 -0.82031,0.60937 -2.13281,0.60937 -0.67969,0 -1.28906,-0.15625 z m 5.46875,-11.67187 h 1.10156 v 8.5 h -1.10156 z m 1.22656,-3.98438 -0.21875,2.64063 h -0.92187 l -0.22657,-2.64063 z m 1.33594,3.98438 h 1.16406 l 2.84375,6.1875 2.82031,-6.1875 h 1.17188 l -3.89063,8.5 h -0.19531 z m 18.14062,0 v 8.5 h -1.07812 v -1.46094 q -0.6875,0.83594 -1.54688,1.25781 -0.85156,0.42188 -1.86718,0.42188 -1.80469,0 -3.08594,-1.30469 -1.27344,-1.3125 -1.27344,-3.1875 0,-1.83594 1.28906,-3.14063 1.28907,-1.30468 3.10157,-1.30468 1.04687,0 1.89062,0.44531 0.85156,0.44531 1.49219,1.33594 v -1.5625 z m -4.375,0.83593 q -0.91406,0 -1.6875,0.45313 -0.77343,0.44531 -1.23437,1.25781 -0.45313,0.8125 -0.45313,1.71875 0,0.89844 0.46094,1.71875 0.46094,0.82031 1.23438,1.28125 0.78125,0.45313 1.67187,0.45313 0.89844,0 1.70313,-0.45313 0.80468,-0.45312 1.23437,-1.22656 0.4375,-0.77344 0.4375,-1.74219 0,-1.47656 -0.97656,-2.46875 -0.96875,-0.99219 -2.39063,-0.99219 z"
           id="text252-6-9"
           style="-inkscape-font-specification:'Century Gothic';stroke-width:0.755906"
           transform="matrix(0.26458333,0,0,0.26458333,125.30295,64.565118)"
           aria-label="Κουζίνα" />
        <path
           d="M 84.923828,391.89553 H 73.853516 l 5.429687,-11.49219 h 0.28125 z m -1.773437,-1.13282 -3.726563,-7.92187 -3.757812,7.92187 z m 3.210937,-7.36718 h 1.101563 v 8.5 h -1.101563 z m 11.835938,0 v 8.5 h -1.078125 v -1.46094 q -0.6875,0.83594 -1.546875,1.25781 -0.851563,0.42188 -1.867188,0.42188 -1.804687,0 -3.085937,-1.30469 -1.273438,-1.3125 -1.273438,-3.1875 0,-1.83594 1.289063,-3.14063 1.289062,-1.30468 3.101562,-1.30468 1.046875,0 1.890625,0.44531 0.851563,0.44531 1.492188,1.33594 v -1.5625 z m -4.375,0.83593 q -0.914063,0 -1.6875,0.45313 -0.773438,0.44531 -1.234375,1.25781 -0.453125,0.8125 -0.453125,1.71875 0,0.89844 0.460937,1.71875 0.460938,0.82031 1.234375,1.28125 0.78125,0.45313 1.671875,0.45313 0.898438,0 1.703125,-0.45313 0.804688,-0.45312 1.234375,-1.22656 0.4375,-0.77344 0.4375,-1.74219 0,-1.47656 -0.976562,-2.46875 -0.96875,-0.99219 -2.390625,-0.99219 z m 0.835937,-4.82031 -0.21875,2.64063 h -0.921875 l -0.226562,-2.64063 z m 8.257817,5.40625 q -1.28907,-0.86719 -1.28907,-2.26562 0,-1.17969 0.90625,-1.91407 0.91407,-0.74218 2.25782,-0.74218 0.98437,0 1.85937,0.21875 l -0.28125,0.97656 q -0.65625,-0.17188 -1.49219,-0.17188 -0.98437,0 -1.5625,0.44532 -0.57031,0.4375 -0.57031,1.15625 0,0.625 0.38281,1.07031 0.38282,0.44531 2.01563,1.10156 2.63281,1.05469 2.63281,3.64063 0,1.59375 -1.08594,2.6875 -1.07812,1.09375 -2.67187,1.09375 -1.59375,0 -2.67969,-1.08594 -1.08594,-1.09375 -1.08594,-2.69531 0,-2.57813 2.66407,-3.51563 z m 1.10156,0.78125 q -1.10938,0 -1.88281,0.8125 -0.76563,0.8125 -0.76563,1.94531 0,1.14063 0.75781,1.92969 0.76563,0.78906 1.89063,0.78906 1.125,0 1.88281,-0.78906 0.76563,-0.78906 0.76563,-1.92969 0,-1.13281 -0.77344,-1.94531 -0.76563,-0.8125 -1.875,-0.8125 z m 0,-1.03906 z m 6.71875,5.73437 v 4.71094 h -1.09375 v -7.10156 q 0,-2.07813 1.26562,-3.39844 1.27344,-1.32812 3.16407,-1.32812 1.89843,0 3.15625,1.32812 1.26562,1.32031 1.26562,3.16406 0,1.875 -1.27344,3.16407 -1.27343,1.28125 -3.14843,1.28125 -2.09375,0 -3.33594,-1.82032 z m 3.33594,-6.04687 q -1.39063,0 -2.35157,1.01562 -0.96093,1.01563 -0.96093,2.42969 0,1.39844 0.9375,2.39063 0.94531,0.99218 2.375,0.99218 1.5,0 2.40625,-1.00781 0.90625,-1.00781 0.90625,-2.375 0,-1.41406 -0.96875,-2.42969 -0.96094,-1.01562 -2.34375,-1.01562 z m 10.47656,-1.07031 q 1.96094,0 3.25,1.42187 1.17187,1.29688 1.17187,3.07031 0,1.78125 -1.24218,3.11719 -1.23438,1.32813 -3.17969,1.32813 -1.95313,0 -3.19531,-1.32813 -1.23438,-1.33594 -1.23438,-3.11719 0,-1.76562 1.17188,-3.0625 1.28906,-1.42968 3.25781,-1.42968 z m 0,1.07031 q -1.35938,0 -2.33594,1.00781 -0.97656,1.00781 -0.97656,2.4375 0,0.92188 0.44531,1.71875 0.44531,0.79688 1.20313,1.23438 0.75781,0.42968 1.66406,0.42968 0.90625,0 1.66406,-0.42968 0.75781,-0.4375 1.20313,-1.23438 0.44531,-0.79687 0.44531,-1.71875 0,-1.42969 -0.98438,-2.4375 -0.97656,-1.00781 -2.32812,-1.00781 z m 13.77344,7.64062 h -1.09375 v -1.52343 q -1.3125,1.74218 -3.1875,1.74218 -1.35938,0 -2.03907,-0.90625 v 3.80469 h -1.09375 v -11.61719 h 1.09375 v 4.05469 q 0,1.27344 0.125,1.98438 0.125,0.71093 0.66407,1.19531 0.54687,0.47656 1.46875,0.47656 1.01562,0 1.78125,-0.64844 0.77343,-0.65625 0.97656,-1.42968 0.21094,-0.78125 0.21094,-2.51563 v -3.11719 h 1.09375 z m 6.46093,-8.71093 q 1.96094,0 3.25,1.42187 1.17188,1.29688 1.17188,3.07031 0,1.78125 -1.24219,3.11719 -1.23437,1.32813 -3.17969,1.32813 -1.95312,0 -3.19531,-1.32813 -1.23437,-1.33594 -1.23437,-3.11719 0,-1.76562 1.17187,-3.0625 1.28906,-1.42968 3.25781,-1.42968 z m 0,1.07031 q -1.35937,0 -2.33593,1.00781 -0.97657,1.00781 -0.97657,2.4375 0,0.92188 0.44532,1.71875 0.44531,0.79688 1.20312,1.23438 0.75781,0.42968 1.66406,0.42968 0.90625,0 1.66407,-0.42968 0.75781,-0.4375 1.20312,-1.23438 0.44531,-0.79687 0.44531,-1.71875 0,-1.42969 -0.98437,-2.4375 -0.97656,-1.00781 -2.32813,-1.00781 z m 14.07032,0.91406 -0.86719,0.53906 q -1.125,-1.49218 -2.83594,-1.49218 -1.38281,0 -2.30469,0.96875 -0.91406,0.96093 -0.91406,2.46093 0,1.27344 0.71875,2.01563 0.71875,0.73437 2.53906,1.07812 1.75782,0.32813 2.41407,0.74219 0.66406,0.41406 0.66406,1.45313 0,1.07812 -0.82813,1.6875 -0.82031,0.60937 -2.13281,0.60937 -0.67969,0 -1.28906,-0.15625 l 0.28125,-0.98437 q 0.49219,0.125 0.92969,0.125 1.92968,0 1.92968,-1.23438 0,-0.46094 -0.42187,-0.73437 -0.42188,-0.27344 -1.85156,-0.5 -4.05469,-0.64844 -4.05469,-4.02344 0,-1.97656 1.25,-3.25781 1.25,-1.28125 3.11719,-1.28125 2.46875,0 3.65625,1.98437 z"
           id="text252-6-1"
           style="-inkscape-font-specification:'Century Gothic';stroke-width:0.755906"
           transform="matrix(0.26458333,0,0,0.26458333,67.947426,34.040607)"
           aria-label="Διάδρομος" />
        <path
           style="fill:none;stroke:#000000;stroke-width:0.7;stroke-linejoin:miter;stroke-dasharray:none;stroke-opacity:1"
           d="M 38.019,97.12 H 10.679828 V 216.47026 H 179.039 v -23.78631"
           id="path252" />
        <path
           d="m 74.345703,391.89553 1.632813,-11.49219 h 0.1875 l 4.671875,9.42969 4.625,-9.42969 h 0.1875 l 1.648437,11.49219 h -1.132812 l -1.125,-8.21875 -4.0625,8.21875 h -0.289063 l -4.117187,-8.28125 -1.117188,8.28125 z m 24.164063,-7.53907 h -1.726563 v 7.53907 h -1.101562 v -7.53907 h -4.289063 v 7.53907 h -1.101562 v -7.53907 h -1.726563 v -0.96093 h 9.945313 z m 10.078124,-0.96093 v 8.5 h -1.07812 v -1.46094 q -0.6875,0.83594 -1.54688,1.25781 -0.85156,0.42188 -1.86719,0.42188 -1.80468,0 -3.08593,-1.30469 -1.273442,-1.3125 -1.273442,-3.1875 0,-1.83594 1.289062,-3.14063 1.28906,-1.30468 3.10156,-1.30468 1.04688,0 1.89063,0.44531 0.85156,0.44531 1.49219,1.33594 v -1.5625 z m -4.375,0.83593 q -0.91406,0 -1.6875,0.45313 -0.77344,0.44531 -1.23437,1.25781 -0.45313,0.8125 -0.45313,1.71875 0,0.89844 0.46094,1.71875 0.46094,0.82031 1.23437,1.28125 0.78125,0.45313 1.67188,0.45313 0.89844,0 1.70312,-0.45313 0.80469,-0.45312 1.23438,-1.22656 0.4375,-0.77344 0.4375,-1.74219 0,-1.47656 -0.97656,-2.46875 -0.96875,-0.99219 -2.39063,-0.99219 z m 14,7.66407 h -1.16406 l -2.83594,-6.54688 -2.92187,6.54688 h -1.15625 l 3.49218,-7.85938 -1.71875,-3.92187 h 1.15625 z m 8.32031,0 h -1.54687 l -4.26563,-3.82032 v 3.82032 h -1.10156 v -8.50782 h 1.10156 v 3.42969 l 3.92969,-3.42187 h 1.60938 l -4.66407,4.05468 z m 5.14844,-8.71875 q 1.96094,0 3.25,1.42187 1.17188,1.29688 1.17188,3.07031 0,1.78125 -1.24219,3.11719 -1.23438,1.32813 -3.17969,1.32813 -1.95312,0 -3.19531,-1.32813 -1.23438,-1.33594 -1.23438,-3.11719 0,-1.76562 1.17188,-3.0625 1.28906,-1.42968 3.25781,-1.42968 z m 0,1.07031 q -1.35937,0 -2.33594,1.00781 -0.97656,1.00781 -0.97656,2.4375 0,0.92188 0.44531,1.71875 0.44532,0.79688 1.20313,1.23438 0.75781,0.42968 1.66406,0.42968 0.90625,0 1.66406,-0.42968 0.75782,-0.4375 1.20313,-1.23438 0.44531,-0.79687 0.44531,-1.71875 0,-1.42969 -0.98437,-2.4375 -0.97657,-1.00781 -2.32813,-1.00781 z m 0.67969,-4.83594 -0.21875,2.64063 h -0.92188 l -0.22656,-2.64063 z m 4.96875,3.98438 h 1.16406 l 2.84375,6.1875 2.82031,-6.1875 h 1.17188 l -3.89063,8.5 h -0.19531 z m 9.50781,0 h 1.10156 v 8.5 h -1.10156 z"
           id="text252-6-5"
           style="-inkscape-font-specification:'Century Gothic';stroke-width:0.755906"
           transform="matrix(0.26458333,0,0,0.26458333,62.997134,103.15158)"
           aria-label="Μπαλκόνι" />
      </g>
      <path
         style="fill:#000000;fill-opacity:1;stroke:#000000;stroke-width:0.3;stroke-linejoin:miter;stroke-dasharray:none;stroke-opacity:1;marker-start:url(#Stop);marker-mid:url(#marker254);marker-end:url(#marker254)"
         d="m 11.013207,91.551941 h 27.181438 35.266794 29.099491 17.01242 59.12187"
         id="path253" />
      <path
         style="fill:#000000;fill-opacity:1;stroke:#000000;stroke-width:0.3;stroke-linejoin:miter;stroke-dasharray:none;stroke-opacity:1;marker-start:url(#marker261);marker-mid:url(#marker260);marker-end:url(#Stop)"
         d="m 33.039621,97.627072 v 51.807278 42.78458 23.7684"
         id="path256" />
      <path
         style="fill:#000000;fill-opacity:1;stroke:#000000;stroke-width:0.3;stroke-linejoin:miter;stroke-dasharray:none;stroke-opacity:1;marker-start:url(#marker261);marker-mid:url(#marker260);marker-end:url(#Stop)"
         d="M 37.677703,196.42024 H 96.306614 129.6465 178.57809"
         id="path257" />
      <path
         style="fill:#000000;fill-opacity:1;stroke:#000000;stroke-width:0.301905;stroke-linejoin:miter;stroke-dasharray:none;stroke-opacity:1;marker-start:url(#marker260);marker-end:url(#marker261)"
         d="M 123.17928,124.98745 V 98.430805"
         id="path259" />
    </g>
  </g>
</svg>
