<svg id="Layer_3" height="512" viewBox="0 0 48 48" width="512" xmlns="http://www.w3.org/2000/svg" data-name="Layer 3"><path d="m27 9.25h-6a.75.75 0 0 0 -.75.75v8.25h-2.25a.75.75 0 0 0 -.5693 1.2383l6 7a.75.75 0 0 0 1.1386 0l6-7a.75.75 0 0 0 -.5693-1.2383h-2.25v-8.25a.75.75 0 0 0 -.75-.75z"/><path d="m15.23 21.25a2.2407 2.2407 0 0 0 -2.21 1.81l-1.63 8.19h25.22l-1.63-8.19a2.2407 2.2407 0 0 0 -2.21-1.81h-1.74l-5.32 6.21a2.2522 2.2522 0 0 1 -1.71.79 2.2769 2.2769 0 0 1 -1.71-.78l-5.32-6.22z"/><path d="m11.25 36.5a2.2534 2.2534 0 0 0 2.25 2.25h21a2.2534 2.2534 0 0 0 2.25-2.25v-3.75h-25.5zm16.75-1.25h4a.75.75 0 0 1 0 1.5h-4a.75.75 0 0 1 0-1.5zm-11 0a.75.75 0 1 1 -.75.75.7555.7555 0 0 1 .75-.75z"/></svg>